<svg xmlns="http://www.w3.org/2000/svg" xmlns:xlink="http://www.w3.org/1999/xlink" width="99" height="197" version="1.1"><rect id="backgroundrect" width="100%" height="100%" x="0" y="0" fill="none" stroke="none"/>

<g class="currentLayer" style=""><title>Layer 1</title><g id="surface1" class="">
<path style=" stroke:none;fill-rule:nonzero;fill:rgb(86.698914%,23.498535%,21.199036%);fill-opacity:1;" d="M78.96484400000003,19.74218725 L78.96484400000003,69.07421925 C78.96484400000003,74.51953125 74.53515599999997,78.94531224999997 69.09375,78.94531224999997 L59.22265599999997,78.94531224999997 L59.22265599999997,49.35156225 L49.351563,39.48046925 L39.48046900000003,49.35156225 L39.48046900000003,78.94531224999997 L29.609375,78.94531224999997 C24.167969000000028,78.94531224999997 19.738280999999972,74.51953125 19.738280999999972,69.07421925 L19.738280999999972,19.74218725 L0,2.499999993688107e-7 L0,69.07421925 C0,85.40234425 13.28125,98.68750025000003 29.609375,98.68750025000003 L39.48046900000003,98.68750025000003 L39.48046900000003,187.54296925 C39.48046900000003,192.99218724999997 43.898438,197.41406224999997 49.351563,197.41406224999997 C54.80078099999997,197.41406224999997 59.22265599999997,192.99218724999997 59.22265599999997,187.54296925 L59.22265599999997,98.68750025000003 L69.09375,98.68750025000003 C85.421875,98.68750025000003 98.703125,85.40234425 98.703125,69.07421925 L98.703125,2.499999993688107e-7 " id="svg_1"/>
</g></g></svg>