<svg xmlns="http://www.w3.org/2000/svg" xmlns:xlink="http://www.w3.org/1999/xlink" width="367" height="219" version="1.1" style=""><rect id="backgroundrect" width="100%" height="100%" x="0" y="0" fill="none" stroke="none" class="" style=""/>

<g class="currentLayer" style=""><title>Layer 1</title><g id="surface1" class="">
<path style=" stroke:none;fill-rule:nonzero;fill:rgb(99.198914%,84.698486%,23.098755%);fill-opacity:1;" d="M287.53446299862117,153.19463034306142 C286.74930699862114,147.06181834306147 286.29618199862114,140.86650534306142 285.1672759986212,134.93681834306147 C285.2102439986212,137.13994334306147 285.01493199862114,139.44853734306145 284.4954009986212,141.80791234306145 C283.09696299862117,148.14775534306142 284.92118199862114,155.25713034306142 286.76493199862114,161.38603734306145 C289.5071189986212,164.04619334306147 292.8235259986212,166.10869334306147 296.53446299862117,166.82353734306145 C292.9329009986212,162.45244334306147 288.3039939986212,158.08134934306145 287.53446299862117,153.19463034306142 " id="svg_1"/>
<path style=" stroke:none;fill-rule:nonzero;fill:rgb(99.198914%,84.698486%,23.098755%);fill-opacity:1;" d="M321.74930699862114,170.93681834306147 C321.74930699862114,170.93681834306147 318.3977439986212,154.99541234306145 329.9641509986212,149.08134934306145 C329.9641509986212,149.08134934306145 332.6672759986212,170.58525534306142 341.7258689986212,183.74541234306145 C350.78446299862117,196.90556834306147 321.74930699862114,170.93681834306147 321.74930699862114,170.93681834306147 " id="svg_2"/>
<path style=" stroke:none;fill-rule:nonzero;fill:rgb(97.299194%,59.199524%,24.699402%);fill-opacity:1;" d="M332.06571299862117,172.44072434306145 C309.1321189986212,154.47978734306145 292.89383799862117,141.78056834306147 293.0422759986212,134.24541234306145 C293.19071299862117,126.71025534306142 278.90946299862117,115.39775534306142 278.90946299862117,115.39775534306142 C278.90946299862117,115.39775534306142 284.96805699862114,123.87822434306145 285.1672759986212,134.93681834306147 C286.29618199862114,140.86650534306142 286.74930699862114,147.06181834306147 287.53446299862117,153.19463034306142 C288.3039939986212,158.08134934306145 292.9329009986212,162.45244334306147 296.53446299862117,166.82353734306145 C292.8235259986212,166.10869334306147 289.5071189986212,164.04619334306147 286.76493199862114,161.38603734306145 C289.0579009986212,169.00322434306145 291.3860259986212,175.11650534306142 287.62821299862117,176.37431834306147 C280.84696299862117,178.64775534306142 272.31571299862117,184.48369334306147 265.78446299862117,157.91338034306142 C261.0305569986212,138.58134934306145 245.69071299862117,129.76103734306145 228.7336819986212,126.88603734306145 C229.13602599862116,126.99150534306142 229.53836899862114,127.10088034306142 229.9368069986212,127.22588034306142 C239.19461899862114,129.53838034306142 247.4211819986212,134.68291234306145 252.82352599862116,143.16728734306145 C258.22196299862117,151.39384934306145 257.19071299862117,161.16728734306145 255.3899319986212,170.16728734306145 C255.3899319986212,171.19463034306142 253.0774319986212,167.33525534306142 252.05008799862117,166.05009934306145 C253.0774319986212,178.64775534306142 259.76102599862116,191.50713034306142 270.05008799862117,198.96416234306145 C258.5149319986212,199.68291234306145 250.35086899862114,190.30009934306145 242.61649399862114,182.56572434306145 C243.91336899862114,187.24150534306142 247.3274319986212,191.63603734306145 254.88211899862114,195.58525534306142 C277.2297759986212,207.26884934306145 268.4211819986212,219.55791234306145 260.44071299862117,210.53447434306145 C252.46024399862114,201.51103734306145 253.64774399862114,196.22978734306145 239.91727599862116,197.97978734306145 C226.18290099862116,199.73369334306147 226.63211899862114,210.01884934306145 226.63211899862114,210.01884934306145 C226.63211899862114,210.01884934306145 241.24149399862114,202.30400534306142 247.15946299862117,218.50322434306145 L342.2297759986212,218.50322434306145 C342.2297759986212,218.50322434306145 354.99930699862114,190.39775534306142 332.06571299862117,172.44072434306145 " id="svg_3"/>
<path style=" stroke:none;fill-rule:nonzero;fill:rgb(99.198914%,84.698486%,23.098755%);fill-opacity:1;" d="M270.05008799862117,198.96416234306145 C259.7649319986212,191.50713034306142 253.0774319986212,178.64775534306142 252.05008799862117,166.05009934306145 C253.0774319986212,167.33525534306142 255.39383799862117,171.19072434306145 255.39383799862117,170.16338034306142 C257.19071299862117,161.16338034306142 258.22196299862117,151.39384934306145 252.81961899862114,143.16728734306145 C247.4211819986212,134.68291234306145 239.19461899862114,129.53838034306142 229.9368069986212,127.22588034306142 C229.53836899862114,127.10088034306142 229.1399319986212,126.99150534306142 228.7336819986212,126.88603734306145 C226.17508799862117,126.45244334306147 223.58133799862117,126.15556834306147 220.97977599862116,125.97588034306142 C217.9680569986212,125.97588034306142 214.89383799862117,126.31572434306145 211.8430569986212,126.84697434306145 C219.38602599862116,129.90947434306145 242.42899399862114,140.25322434306145 244.2336819986212,153.04619334306147 C245.66336899862114,163.18291234306145 240.08133799862117,173.41728734306145 242.61649399862114,182.56572434306145 C250.35086899862114,190.30009934306145 258.5149319986212,199.68291234306145 270.05008799862117,198.96416234306145 " id="svg_4"/>
<path style=" stroke:none;fill-rule:nonzero;fill:rgb(99.198914%,84.698486%,23.098755%);fill-opacity:1;" d="M280.38993199862114,137.02666234306145 C280.38993199862114,137.02666234306145 280.0071189986212,113.74931834306147 262.9524319986212,109.88994334306147 C262.9524319986212,109.88994334306147 268.59696299862117,134.07744334306147 280.38993199862114,137.02666234306145 " id="svg_5"/>
<path style=" stroke:none;fill-rule:nonzero;fill:rgb(94.099426%,32.199097%,23.498535%);fill-opacity:1;" d="M206.56961899862114,186.26103734306145 L206.57352599862116,186.26103734306145 zM247.29227599862116,183.74541234306145 L250.86258799862117,185.02666234306145 C250.74540099862116,185.04228734306145 250.62821299862117,185.05400534306142 250.50711899862114,185.07744334306147 C248.92508799862117,185.39384934306145 247.55790099862116,186.01494334306147 246.21415099862116,186.59697434306145 C244.2805569986212,187.44072434306145 242.3899319986212,188.21025534306142 239.96415099862116,187.90556834306147 C239.75711899862114,187.87431834306147 239.55399399862114,187.82744334306147 239.35086899862114,187.78447434306145 L236.85477599862116,182.68291234306145 C244.8899319986212,187.18681834306147 247.29227599862116,183.74541234306145 247.29227599862116,183.74541234306145 M258.21024399862114,195.11650534306142 L257.79227599862116,193.84306834306147 C259.11258799862117,193.42900534306142 260.00321299862117,193.06572434306145 260.00321299862117,193.06572434306145 C260.00321299862117,193.06572434306145 258.99540099862116,183.03838034306142 252.81571299862117,176.38994334306147 C246.63602599862116,169.74150534306142 227.1086819986212,173.49931834306147 227.1086819986212,173.49931834306147 C227.1086819986212,173.49931834306147 227.05790099862116,173.49150534306142 226.97977599862116,173.49150534306142 C206.00321299862117,171.73369334306147 190.47586899862114,172.54228734306145 179.01102599862116,174.77275534306142 C174.2180569986212,175.70244334306147 170.15946299862117,176.88994334306147 166.67508799862117,178.23369334306147 L167.69461899862114,168.71416234306145 L169.08524399862114,155.72197434306145 L170.9055569986212,138.68291234306145 L173.30008799862117,116.32353734306145 C173.66336899862114,112.91728734306145 173.3430569986212,109.49931834306147 172.39383799862117,106.25322434306145 C171.77665099862116,104.15556834306147 170.90165099862116,102.12822434306145 169.7649319986212,100.22588034306142 L160.08133799862117,84.04228734306145 L153.55008799862117,73.12822434306145 L154.19071299862117,69.81181834306147 L165.24149399862114,73.12822434306145 L178.88211899862114,57.13213034306145 C179.97196299862117,55.854787343061446 180.56961899862114,54.229787343061446 180.56961899862114,52.55009934306145 L180.56961899862114,49.436818343061454 C180.56961899862114,49.27275534306145 180.58133799862117,49.10869334306145 180.59696299862117,48.948537343061446 C180.82352599862116,46.78447434306145 182.50711899862114,45.02275534306145 184.71024399862114,44.74931834306145 L186.76102599862116,44.49150534306145 L187.39774399862114,44.41338034306145 C189.72196299862117,44.120412343061446 191.53446299862117,42.26494334306145 191.76883799862117,39.93681834306145 L192.16727599862116,36.03838034306145 C192.19071299862117,36.04619334306145 192.21024399862114,36.06181834306145 192.2336819986212,36.06181834306145 C193.88211899862114,36.198537343061446 220.03446299862117,37.97197434306145 223.60086899862114,13.077443343061447 C223.64774399862114,12.741505343061448 223.21024399862114,12.569630343061448 223.02274399862114,12.854787343061446 C220.28836899862114,16.999318343061447 210.21024399862114,30.026662343061446 193.65946299862117,26.393849343061447 C193.97977599862116,24.784474343061447 193.9680569986212,23.143849343061447 193.62040099862116,21.573537343061446 C201.0930569986212,19.081349343061447 209.10477599862116,13.362599343061447 210.9680569986212,0.37041234306144605 C211.0149319986212,0.030568343061446526 210.5774319986212,-0.1413066569385535 210.38602599862116,0.14384934306144725 C208.10477599862116,3.604787343061446 200.7024319986212,13.268849343061447 188.67899399862114,14.241505343061448 C185.11649399862114,11.389943343061447 179.3118069986212,7.9836933430614465 173.00321299862117,5.9211933430614465 C164.05790099862116,3.003224343061447 154.1086819986212,2.792287343061446 148.09696299862117,10.729787343061446 C147.6868069986212,11.268849343061447 147.29227599862116,11.843068343061447 146.9211819986212,12.460255343061448 L146.46024399862114,13.530568343061447 C137.70633799862117,5.432912343061446 133.25321299862117,3.2024433430614465 133.25321299862117,3.2024433430614465 C133.25321299862117,3.2024433430614465 134.62040099862116,19.225880343061448 140.73758799862117,26.886037343061446 L139.47196299862117,29.835255343061448 L137.37821299862117,34.71806834306145 L135.13602599862116,39.95244334306145 L125.3274319986212,45.03447434306145 L113.60477599862116,51.11650534306145 L91.19852599862116,46.901662343061446 L73.94461899862114,43.65947434306145 C73.94461899862114,43.65947434306145 66.1711819986212,40.401662343061446 56.698525998621164,37.92509934306145 C45.831337998621166,35.089162343061446 32.729775998621164,33.28056834306145 26.550087998621166,38.59306834306145 L26.550087998621166,38.74931834306145 C9.639931998621165,51.86650534306145 -0.5710060013788338,82.84697434306145 26.550087998621166,94.37431834306147 L26.550087998621166,94.46416234306145 L49.93680699862119,104.25713034306142 C50.99149399862114,111.86650534306142 52.09305699862119,122.51494334306147 52.19461899862114,134.24541234306145 C52.300087998621166,146.56572434306145 51.300087998621166,160.07353734306145 47.97586899862114,172.47978734306145 L39.14774399862114,218.50322434306145 L138.14383799862117,218.50322434306145 C138.14383799862117,218.50322434306145 127.8586819986212,207.34697434306145 127.5930569986212,187.90556834306147 C127.5461819986212,184.51884934306145 128.3430569986212,173.44853734306145 130.94461899862114,166.69072434306145 C131.36649399862114,165.60088034306142 131.83133799862117,164.62041234306145 132.35086899862114,163.80400534306142 L146.77665099862116,202.01103734306145 C152.55790099862116,213.07744334306147 163.0305569986212,216.73759934306145 174.9524319986212,216.37822434306145 C195.68290099862116,215.74931834306147 220.78836899862114,202.97588034306142 233.23758799862117,195.86650534306142 C234.07352599862116,195.38994334306147 234.8430569986212,194.94072434306145 235.5618069986212,194.51884934306145 C241.96024399862114,201.58525534306142 248.51883799862117,198.76884934306145 248.51883799862117,198.76884934306145 L252.46024399862114,201.51103734306145 L260.44071299862117,201.89384934306145 " id="svg_6"/>
<path style=" stroke:none;fill-rule:nonzero;fill:rgb(86.698914%,23.498535%,21.199036%);fill-opacity:1;" d="M234.3743069986212,193.09306834306147 C233.81571299862117,192.35869334306147 233.33524399862114,191.62822434306145 232.92899399862114,190.90166234306145 C231.5461819986212,188.44463034306142 234.13602599862116,185.67119334306147 236.7024319986212,186.83916234306145 C237.55008799862117,187.22588034306142 238.42899399862114,187.57744334306147 239.35086899862114,187.78447434306145 L236.85477599862116,182.68291234306145 C235.83915099862116,182.11259934306145 234.73758799862117,181.42509934306145 233.53836899862114,180.57744334306147 C223.99540099862116,173.86259934306145 226.35086899862114,173.49150534306142 226.97977599862116,173.49150534306142 C206.00321299862117,171.73369334306147 190.47586899862114,172.54228734306145 179.01102599862116,174.77275534306142 C189.90165099862116,179.21806834306147 200.51102599862116,183.99541234306145 211.42508799862117,188.16338034306142 C218.7180569986212,190.84697434306145 225.95633799862117,193.44463034306142 233.23758799862117,195.86650534306142 C234.07352599862116,195.38994334306147 234.84696299862117,194.94072434306145 235.5618069986212,194.51884934306145 C235.16336899862114,194.08134934306145 234.76883799862117,193.60869334306147 234.3743069986212,193.09306834306147 " id="svg_7"/>
<path style=" stroke:none;fill-rule:nonzero;fill:rgb(57.299805%,17.599487%,21.598816%);fill-opacity:1;" d="M258.52665099862116,186.58916234306145 C259.7180569986212,190.23759934306145 260.00711899862114,193.06572434306145 260.00711899862114,193.06572434306145 C260.00711899862114,193.06572434306145 256.7024319986212,194.40947434306145 253.37821299862117,194.88603734306145 C254.05399399862114,195.13994334306147 254.72586899862114,195.38994334306147 255.39383799862117,195.64384934306145 C256.3586819986212,195.51884934306145 257.3118069986212,195.33525534306142 258.21024399862114,195.11650534306142 L258.80399399862114,196.92509934306145 C291.7258689986212,209.29619334306147 314.20243199862114,217.69463034306142 314.20243199862114,217.69463034306142 L342.2297759986212,217.69463034306142 " id="svg_8"/>
<path style=" stroke:none;fill-rule:nonzero;fill:rgb(57.299805%,17.599487%,21.598816%);fill-opacity:1;" d="M270.9680569986212,218.50322434306145 L292.3352439986212,180.14384934306145 C294.7766509986212,175.76103734306145 300.12821299862117,173.92509934306145 304.7454009986212,175.88603734306145 L351.83133799862117,195.86650534306142 L366.6164939986212,207.85088034306142 L344.42118199862114,205.92119334306147 L312.2414939986212,190.63603734306145 C307.45633799862117,188.36650534306142 301.73368199862114,190.29619334306147 299.3079009986212,194.99931834306147 L287.1672759986212,218.50322434306145 " id="svg_9"/>
<path style=" stroke:none;fill-rule:nonzero;fill:rgb(97.299194%,59.199524%,24.699402%);fill-opacity:1;" d="M221.51883799862117,141.80791234306145 C221.51883799862117,141.80791234306145 213.6868069986212,130.33134934306145 202.2180569986212,131.87431834306147 C190.7493069986212,133.41728734306145 184.3899319986212,125.92119334306147 184.3899319986212,125.92119334306147 C184.3899319986212,125.92119334306147 193.80399399862114,149.21025534306142 221.51883799862117,141.80791234306145 " id="svg_10"/>
<path style=" stroke:none;fill-rule:nonzero;fill:rgb(97.299194%,59.199524%,24.699402%);fill-opacity:1;" d="M311.4602439986212,187.46806834306147 C322.06571299862117,194.73369334306147 323.8039939986212,202.05009934306145 321.08133799862117,202.82353734306145 C321.85868199862114,205.43291234306145 321.98758799862117,208.33916234306145 321.98758799862117,211.04619334306147 C325.5891509986212,208.47588034306142 328.4172759986212,204.62041234306145 328.4172759986212,199.99150534306142 C328.4172759986212,199.21806834306147 329.4446189986212,201.01884934306145 330.21805699862114,200.50322434306145 C326.1008689986212,193.81963034306142 319.15946299862117,189.19072434306145 312.21805699862114,185.33525534306142 C308.6204009986212,183.33525534306142 305.9602439986212,180.40556834306147 303.98368199862114,177.02666234306145 C304.87821299862117,180.67900534306142 307.0266509986212,184.43291234306145 311.4602439986212,187.46806834306147 " id="svg_11"/>
<path style=" stroke:none;fill-rule:nonzero;fill:rgb(97.299194%,59.199524%,24.699402%);fill-opacity:1;" d="M306.04618199862114,207.19072434306145 C305.53055699862114,209.24931834306147 305.7883689986212,211.56181834306147 305.7883689986212,213.62041234306145 C299.35868199862114,212.84697434306145 299.35868199862114,205.13213034306142 294.9914939986212,201.53447434306145 C293.81180699862114,200.50322434306145 292.4641509986212,199.81181834306147 291.04618199862114,199.35869334306147 C295.4016509986212,205.95244334306147 294.84696299862117,218.50322434306145 294.84696299862117,218.50322434306145 L317.7258689986212,218.50322434306145 C313.42118199862114,215.28056834306147 309.62430699862114,211.12822434306145 306.04618199862114,207.19072434306145 " id="svg_12"/>
<path style=" stroke:none;fill-rule:nonzero;fill:rgb(86.698914%,23.498535%,21.199036%);fill-opacity:1;" d="M172.39383799862117,106.25322434306145 C162.08915099862116,106.24150534306142 151.78836899862114,106.13994334306147 141.4836819986212,106.13994334306147 C141.9993069986212,107.17119334306147 142.5149319986212,108.45244334306147 142.77274399862114,109.22588034306142 C143.02665099862116,112.56572434306145 145.08524399862114,119.25322434306145 141.4836819986212,119.76884934306145 C140.45633799862117,119.76884934306145 139.1711819986212,118.99541234306145 138.40165099862116,118.73759934306145 C136.8586819986212,118.22588034306142 135.31571299862117,116.94072434306145 134.0305569986212,115.65166234306145 C132.22977599862116,113.85478734306145 130.6868069986212,111.79619334306147 128.88602599862116,109.99541234306145 C121.6868069986212,102.54228734306145 116.5461819986212,94.05400534306142 111.91727599862116,85.05400534306142 C109.8586819986212,80.94072434306145 108.05790099862116,77.08525534306142 105.22977599862116,73.22978734306145 C103.94461899862114,71.68681834306147 103.6868069986212,69.88603734306145 102.91727599862116,68.08525534306142 C98.9368069986212,60.98759934306145 94.14383799862117,54.24150534306145 91.19852599862116,46.901662343061446 L73.94852599862116,43.65947434306145 C73.94852599862116,43.65947434306145 66.1711819986212,40.401662343061446 56.698525998621164,37.92509934306145 C56.92899399862114,45.807912343061446 57.88211899862114,53.78838034306145 60.49149399862114,61.39775534306145 C60.49149399862114,61.39775534306145 61.261025998621164,61.65556834306145 61.776650998621164,61.39775534306145 C64.60477599862116,59.854787343061446 68.20633799862117,56.51494334306145 70.00321299862117,58.82744334306145 C75.33524399862114,65.34306834306145 75.3586819986212,73.82353734306145 74.38602599862116,82.18291234306145 C79.78836899862114,89.02666234306145 84.20633799862117,96.46416234306145 87.2336819986212,104.59697434306145 C88.00321299862117,106.39775534306142 88.51883799862117,108.45244334306147 88.77274399862114,110.25322434306145 C89.10477599862116,112.57353734306145 89.40165099862116,114.91338034306142 89.6243069986212,117.26494334306147 C91.5149319986212,121.77275534306142 92.0618069986212,125.77275534306142 91.8274319986212,129.21806834306147 C95.0305569986212,130.24931834306147 98.0618069986212,131.46416234306145 101.3743069986212,132.88213034306142 C102.91727599862116,133.39775534306142 104.46024399862114,133.13994334306147 106.00321299862117,133.90947434306145 C123.33915099862116,143.38603734306145 142.13211899862114,147.46416234306145 160.88602599862116,153.04619334306147 C160.80399399862114,148.55400534306142 160.89774399862114,143.98759934306145 161.28446299862117,139.56572434306145 C161.28446299862117,139.05400534306142 162.05790099862116,138.28056834306147 162.3118069986212,138.28056834306147 C164.88602599862116,136.73759934306145 168.4836819986212,136.47978734306145 170.54227599862116,138.28056834306147 C170.66727599862116,138.40947434306145 170.78836899862114,138.54619334306147 170.90946299862117,138.68291234306145 L173.30008799862117,116.32353734306145 C173.66336899862114,112.91728734306145 173.34696299862117,109.49931834306147 172.39383799862117,106.25322434306145 " id="svg_13"/>
<path style=" stroke:none;fill-rule:nonzero;fill:rgb(69.799805%,17.298889%,17.599487%);fill-opacity:1;" d="M153.55399399862114,73.12822434306145 L154.19071299862117,69.81181834306147 L151.01102599862116,68.85478734306145 L148.9055569986212,65.02275534306145 L135.13602599862116,39.95244334306145 L125.3274319986212,45.03447434306145 C132.1868069986212,58.95244334306145 139.58133799862117,72.10869334306147 149.97196299862117,83.77275534306142 C151.25711899862114,85.31181834306147 153.3118069986212,87.88603734306145 154.60086899862114,87.11259934306145 C156.58524399862114,86.33916234306145 158.39774399862114,85.28838034306142 160.08133799862117,84.04228734306145 " id="svg_14"/>
<path style=" stroke:none;fill-rule:nonzero;fill:rgb(69.799805%,17.298889%,17.599487%);fill-opacity:1;" d="M77.17899399862114,143.98369334306147 L73.94852599862116,136.99541234306145 C73.94852599862116,136.99541234306145 50.24930699862119,129.79619334306147 67.94852599862116,111.79619334306147 L49.93680699862119,104.25713034306142 C50.99149399862114,111.86650534306142 52.09305699862119,122.51494334306147 52.19461899862114,134.24541234306145 C61.096962998621166,137.87822434306145 67.75321299862117,145.50713034306142 76.69071299862117,149.33916234306145 C77.62040099862116,147.63213034306142 78.48758799862117,145.85869334306147 79.24149399862114,144.04619334306147 " id="svg_15"/>
<path style=" stroke:none;fill-rule:nonzero;fill:rgb(86.698914%,23.498535%,21.199036%);fill-opacity:1;" d="M60.23368199862119,190.47588034306142 C59.71805699862119,189.70634934306145 59.464150998621164,188.67900534306142 58.690712998621166,187.90556834306147 C55.167275998621164,197.40556834306147 53.104775998621164,208.36650534306142 54.73368199862119,218.50322434306145 L77.80399399862114,218.50322434306145 C71.70633799862117,210.40166234306145 66.51102599862116,201.91728734306145 60.74930699862119,193.05009934306145 C60.49149399862114,192.27666234306145 60.49149399862114,191.24931834306147 60.23368199862119,190.47588034306142 " id="svg_16"/>
<path style=" stroke:none;fill-rule:nonzero;fill:rgb(86.698914%,23.498535%,21.199036%);fill-opacity:1;" d="M121.42899399862114,207.44853734306145 C121.17508799862117,207.19072434306145 120.65946299862117,207.44853734306145 120.40165099862116,207.96416234306145 C119.21024399862114,211.67509934306145 117.33133799862117,215.31572434306145 114.8743069986212,218.50322434306145 L124.21024399862114,218.50322434306145 C124.1399319986212,218.24541234306145 124.07352599862116,217.99150534306142 124.00321299862117,217.73369334306147 C122.97196299862117,214.38994334306147 123.22977599862116,210.79228734306145 121.42899399862114,207.44853734306145 " id="svg_17"/>
<path style=" stroke:none;fill-rule:nonzero;fill:rgb(86.698914%,23.498535%,21.199036%);fill-opacity:1;" d="M166.67508799862117,178.23369334306147 L167.69461899862114,168.71416234306145 C165.99540099862116,168.12822434306145 164.30399399862114,167.51103734306145 162.56961899862114,167.08134934306145 C155.11258799862117,164.76494334306147 147.6555569986212,162.19463034306142 139.94461899862114,160.13603734306145 C138.65946299862117,159.62431834306147 137.37040099862116,158.59306834306147 136.3430569986212,158.33525534306142 C135.60086899862114,158.12822434306145 134.86649399862114,157.91338034306142 134.13211899862114,157.69463034306142 C132.79227599862116,160.56181834306147 131.69071299862117,163.52666234306145 130.94461899862114,166.69072434306145 C131.36649399862114,165.60088034306142 131.83133799862117,164.62041234306145 132.35086899862114,163.80400534306142 L146.77665099862116,202.01103734306145 C146.77665099862116,202.01103734306145 144.46415099862116,186.80009934306145 166.67508799862117,178.23369334306147 " id="svg_18"/>
<path style=" stroke:none;fill-rule:nonzero;fill:rgb(69.799805%,17.298889%,17.599487%);fill-opacity:1;" d="M167.19852599862116,154.99541234306145 C158.1555569986212,152.08916234306145 149.0618069986212,149.72197434306145 140.0930569986212,147.10478734306145 C137.88602599862116,150.61650534306142 135.82352599862116,154.07744334306147 134.13602599862116,157.69463034306142 C134.86649399862114,157.91338034306142 135.60086899862114,158.12822434306145 136.3430569986212,158.33916234306145 C137.3743069986212,158.59306834306147 138.65946299862117,159.62431834306147 139.94461899862114,160.13603734306145 C147.6555569986212,162.19463034306142 155.11258799862117,164.76494334306147 162.56961899862114,167.08134934306145 C164.30399399862114,167.51494334306147 165.99540099862116,168.12822434306145 167.69461899862114,168.71416234306145 L169.08524399862114,155.72197434306145 C168.4680569986212,155.44463034306142 167.8430569986212,155.19853734306145 167.19852599862116,154.99541234306145 " id="svg_19"/>
<path style=" stroke:none;fill-rule:nonzero;fill:rgb(86.698914%,23.498535%,21.199036%);fill-opacity:1;" d="M106.00321299862117,133.90947434306145 C104.46024399862114,133.13994334306147 102.91727599862116,133.39384934306145 101.3743069986212,132.88213034306142 C98.0618069986212,131.46025534306142 95.03446299862117,130.23759934306145 91.8274319986212,129.20244334306147 C91.4836819986212,134.22978734306145 89.50321299862117,138.06963034306142 87.66727599862116,140.60869334306147 C89.06571299862117,141.21025534306142 90.46415099862116,141.80791234306145 91.8586819986212,142.39384934306145 C94.94852599862116,143.68291234306145 98.0305569986212,145.22197434306145 100.8586819986212,146.51103734306145 C104.2024319986212,147.79619334306147 107.28836899862114,148.82353734306145 110.63211899862114,149.85088034306142 C112.94461899862114,150.87822434306145 115.00321299862117,152.16728734306145 117.31571299862117,152.67900534306142 C123.22977599862116,154.04619334306147 128.53836899862114,156.01103734306145 134.13211899862114,157.69463034306142 C135.82352599862116,154.07744334306147 137.88602599862116,150.61650534306142 140.0930569986212,147.10478734306145 C128.40165099862116,143.69853734306145 116.91336899862114,139.87431834306147 106.00321299862117,133.90947434306145 " id="svg_20"/>
<path style=" stroke:none;fill-rule:nonzero;fill:rgb(86.698914%,23.498535%,21.199036%);fill-opacity:1;" d="M211.42508799862117,188.16338034306142 C209.80008799862117,187.54228734306145 208.18290099862116,186.90556834306147 206.56961899862114,186.26103734306145 C207.07352599862116,186.88994334306147 207.5774319986212,187.52275534306142 208.08133799862117,188.16338034306142 C211.42508799862117,191.76103734306145 212.4524319986212,199.73369334306147 206.53836899862114,201.27666234306145 C199.85477599862116,203.07744334306147 197.7961819986212,196.13213034306142 195.74149399862114,191.50713034306142 C190.33915099862116,192.53447434306145 184.42508799862117,196.90556834306147 184.94071299862117,202.81963034306142 C187.25321299862117,201.53447434306145 189.8274319986212,199.47588034306142 192.1399319986212,200.50322434306145 C195.4836819986212,202.04619334306147 195.99540099862116,207.19072434306145 194.4524319986212,210.01884934306145 C193.16727599862116,212.33525534306142 189.8274319986212,212.84697434306145 187.25321299862117,213.62041234306145 C183.08915099862116,214.60478734306145 178.9211819986212,215.31181834306147 174.95633799862117,216.37822434306145 C195.68290099862116,215.75322434306145 220.78836899862114,202.97588034306142 233.23758799862117,195.86650534306142 C225.95633799862117,193.44463034306142 218.7180569986212,190.84697434306145 211.42508799862117,188.16338034306142 " id="svg_21"/>
<path style=" stroke:none;fill-rule:nonzero;fill:rgb(86.698914%,23.498535%,21.199036%);fill-opacity:1;" d="M171.56961899862114,29.772755343061448 C169.51102599862116,25.401662343061446 163.85477599862116,28.229787343061446 161.54227599862116,31.057912343061446 C158.97196299862117,34.401662343061446 160.76883799862117,40.31572434306145 164.62821299862117,41.85869334306145 C169.8586819986212,43.98369334306145 176.12821299862117,45.49150534306145 180.59696299862117,48.948537343061446 C180.82352599862116,46.78447434306145 182.51102599862116,45.02275534306145 184.71024399862114,44.74931834306145 L186.7649319986212,44.49150534306145 C179.79227599862116,42.30009934306145 174.4993069986212,36.53056834306145 171.56961899862114,29.772755343061448 " id="svg_22"/>
<path style=" stroke:none;fill-rule:nonzero;fill:rgb(86.698914%,23.498535%,21.199036%);fill-opacity:1;" d="M146.47196299862117,13.542287343061446 C148.16336899862114,15.104787343061446 149.37821299862117,16.690724343061447 150.23758799862117,18.229787343061446 C149.72196299862117,15.679005343061448 148.9836819986212,13.151662343061446 148.09696299862117,10.729787343061446 C147.6868069986212,11.268849343061447 147.29227599862116,11.843068343061447 146.9211819986212,12.464162343061446 L146.46024399862114,13.530568343061447 C146.46415099862116,13.534474343061447 146.4680569986212,13.538380343061448 146.47196299862117,13.542287343061446 " id="svg_23"/>
<path style=" stroke:none;fill-rule:nonzero;fill:rgb(86.698914%,23.498535%,21.199036%);fill-opacity:1;" d="M177.22586899862114,19.229787343061446 C181.93290099862116,19.975880343061448 187.59696299862117,20.241505343061448 190.76102599862116,16.116505343061448 C190.5774319986212,15.917287343061446 190.38602599862116,15.721974343061447 190.1868069986212,15.538380343061448 C186.92899399862114,12.495412343061446 180.30008799862117,8.304005343061448 173.00321299862117,5.9211933430614465 C174.30399399862114,8.800099343061447 174.9680569986212,12.163380343061448 175.42508799862117,15.374318343061447 C175.68290099862116,16.659474343061447 176.19852599862116,18.975880343061448 177.22586899862114,19.229787343061446 " id="svg_24"/>
<path style=" stroke:none;fill-rule:nonzero;fill:rgb(86.698914%,23.498535%,21.199036%);fill-opacity:1;" d="M149.19852599862116,42.374318343061454 C145.94852599862116,39.12431834306145 139.8118069986212,38.59697434306145 137.37821299862117,34.71806834306145 L135.13602599862116,39.95244334306145 L148.9055569986212,65.02275534306145 C153.41336899862114,57.65947434306145 155.05008799862117,48.00713034306145 149.19852599862116,42.374318343061454 " id="svg_25"/>
<path style=" stroke:none;fill-rule:nonzero;fill:rgb(86.698914%,23.498535%,21.199036%);fill-opacity:1;" d="M192.01883799862117,17.718068343061447 C190.47586899862114,22.565724343061447 187.3430569986212,28.018849343061447 191.1086819986212,31.315724343061447 C191.47977599862116,31.624318343061447 192.0149319986212,31.725880343061448 192.6086819986212,31.663380343061448 L192.89383799862117,28.866505343061448 C194.52665099862116,25.186818343061447 194.14383799862117,20.991505343061448 192.01883799862117,17.718068343061447 " id="svg_26"/>
<path style=" stroke:none;fill-rule:nonzero;fill:rgb(86.698914%,23.498535%,21.199036%);fill-opacity:1;" d="M140.73758799862117,26.886037343061446 L139.47196299862117,29.835255343061448 C140.7336819986212,29.846974343061447 141.9993069986212,29.651662343061446 143.17899399862114,29.261037343061446 C142.29227599862116,28.620412343061446 141.47977599862116,27.815724343061447 140.73758799862117,26.886037343061446 " id="svg_27"/>
<path style=" stroke:none;fill-rule:nonzero;fill:rgb(69.799805%,17.298889%,17.599487%);fill-opacity:1;" d="M137.88602599862116,9.846974343061447 C137.88602599862116,9.846974343061447 145.47196299862117,17.948537343061446 147.40165099862116,20.647755343061448 C147.40165099862116,20.647755343061448 141.9993069986212,21.804005343061448 146.24149399862114,25.143849343061447 C146.24149399862114,25.143849343061447 136.60086899862114,27.846974343061447 137.88602599862116,9.846974343061447 " id="svg_28"/>
<path style=" stroke:none;fill-rule:nonzero;fill:rgb(69.799805%,17.298889%,17.599487%);fill-opacity:1;" d="M171.76102599862116,54.136037343061446 C171.56961899862114,53.74931834306145 177.03446299862117,53.042287343061446 177.67508799862117,54.45634934306145 C178.31961899862114,55.870412343061446 176.3274319986212,56.70634934306145 176.3274319986212,56.70634934306145 C176.3274319986212,56.70634934306145 172.4055569986212,55.42119334306145 171.76102599862116,54.136037343061446 " id="svg_29"/>
<path style=" stroke:none;fill-rule:nonzero;fill:rgb(57.299805%,17.599487%,21.598816%);fill-opacity:1;" d="M192.2336819986212,36.06181834306145 C193.88211899862114,36.198537343061446 220.03446299862117,37.97197434306145 223.60086899862114,13.081349343061447 C223.65165099862116,12.741505343061448 223.21024399862114,12.569630343061448 223.02274399862114,12.854787343061446 C220.21415099862116,17.108693343061447 209.67508799862117,30.733693343061447 192.3274319986212,26.077443343061447 C192.2180569986212,26.046193343061447 192.10477599862116,26.077443343061447 192.02274399862114,26.155568343061447 C191.14383799862117,27.030568343061447 186.31571299862117,32.25322434306145 192.08524399862114,36.011037343061446 C192.13211899862114,36.042287343061446 192.18290099862116,36.057912343061446 192.2336819986212,36.06181834306145 " id="svg_30"/>
<path style=" stroke:none;fill-rule:nonzero;fill:rgb(57.299805%,17.599487%,21.598816%);fill-opacity:1;" d="M179.60086899862114,23.354787343061446 C181.2493069986212,23.491505343061448 207.40165099862116,25.261037343061446 210.9680569986212,0.37041234306144605 C211.0149319986212,0.03447434306144715 210.5774319986212,-0.1413066569385535 210.3899319986212,0.14384934306144725 C207.58133799862117,4.397755343061448 197.03836899862114,18.026662343061446 179.69461899862114,13.366505343061448 C179.58524399862114,13.335255343061448 179.4680569986212,13.366505343061448 179.3899319986212,13.444630343061448 C178.51102599862116,14.319630343061448 173.68290099862116,19.546193343061447 179.4524319986212,23.300099343061447 C179.49540099862116,23.331349343061447 179.5461819986212,23.346974343061447 179.60086899862114,23.354787343061446 " id="svg_31"/>
<path style=" stroke:none;fill-rule:nonzero;fill:rgb(99.198914%,84.698486%,23.098755%);fill-opacity:1;" d="M167.45633799862117,31.917287343061446 C167.45633799862117,31.917287343061446 174.22586899862114,34.48759934306145 173.02665099862116,41.343068343061454 C171.8274319986212,48.20244334306145 162.4836819986212,34.14775534306145 167.45633799862117,31.917287343061446 " id="svg_32"/>
<path style=" stroke:none;fill-rule:nonzero;fill:rgb(99.198914%,84.698486%,23.098755%);fill-opacity:1;" d="M178.6399319986212,45.50322434306145 C178.6399319986212,45.50322434306145 181.16727599862116,44.25713034306145 181.55399399862114,45.50322434306145 C181.94071299862117,46.745412343061446 177.74149399862114,48.20244334306145 178.6399319986212,45.50322434306145 " id="svg_33"/>
<path style=" stroke:none;fill-rule:nonzero;fill:rgb(86.698914%,23.498535%,21.199036%);fill-opacity:1;" d="M257.79227599862116,193.84306834306147 C254.80790099862116,194.78056834306147 249.62821299862117,195.98369334306147 247.5461819986212,193.88603734306145 C247.41727599862116,193.84306834306147 247.28446299862117,193.81181834306147 247.15946299862117,193.76494334306147 C249.7336819986212,196.40166234306145 254.4368069986212,196.03056834306147 258.21024399862114,195.11650534306142 " id="svg_34"/>
<path style=" stroke:none;fill-rule:nonzero;fill:rgb(86.698914%,23.498535%,21.199036%);fill-opacity:1;" d="M246.92508799862117,192.96025534306142 C244.9836819986212,188.32353734306145 252.87821299862117,185.75322434306145 252.87821299862117,185.75322434306145 L250.86258799862117,185.02666234306145 C250.74540099862116,185.04619334306147 250.62821299862117,185.05400534306142 250.50711899862114,185.07744334306147 C248.92508799862117,185.39384934306145 247.55790099862116,186.01494334306147 246.21415099862116,186.59697434306145 C246.2493069986212,186.85478734306145 246.22586899862114,187.12431834306147 246.13602599862116,187.38994334306147 C244.85086899862114,189.44853734306145 244.5930569986212,192.53447434306145 246.65165099862116,193.56181834306147 C246.94461899862114,193.68681834306147 247.24540099862116,193.78447434306145 247.55008799862117,193.88603734306145 C247.29227599862116,193.62822434306145 247.0774319986212,193.32744334306147 246.92508799862117,192.96025534306142 " id="svg_35"/>
<path style=" stroke:none;fill-rule:nonzero;fill:rgb(69.799805%,17.298889%,17.599487%);fill-opacity:1;" d="M153.55399399862114,73.12822434306145 L154.19071299862117,69.81181834306147 L151.01102599862116,68.85478734306145 L148.9055569986212,65.02275534306145 L135.13602599862116,39.95244334306145 L125.3274319986212,45.03447434306145 C132.1868069986212,58.95244334306145 139.58133799862117,72.10869334306147 149.97196299862117,83.77275534306142 C151.25711899862114,85.31181834306147 153.3118069986212,87.88603734306145 154.60086899862114,87.11259934306145 C156.58524399862114,86.33916234306145 158.39774399862114,85.28838034306142 160.08133799862117,84.04228734306145 " id="svg_36"/>
<path style=" stroke:none;fill-rule:nonzero;fill:rgb(69.799805%,17.298889%,17.599487%);fill-opacity:1;" d="M77.17899399862114,143.98369334306147 L73.94852599862116,136.99541234306145 C73.94852599862116,136.99541234306145 50.24930699862119,129.79619334306147 67.94852599862116,111.79619334306147 L49.93680699862119,104.25713034306142 C50.99149399862114,111.86650534306142 52.09305699862119,122.51494334306147 52.19461899862114,134.24541234306145 C61.096962998621166,137.87822434306145 67.75321299862117,145.50713034306142 76.69071299862117,149.33916234306145 C77.62040099862116,147.63213034306142 78.48758799862117,145.85869334306147 79.24149399862114,144.04619334306147 " id="svg_37"/>
<path style=" stroke:none;fill-rule:nonzero;fill:rgb(86.698914%,23.498535%,21.199036%);fill-opacity:1;" d="M60.23368199862119,190.47588034306142 C59.71805699862119,189.70634934306145 59.464150998621164,188.67900534306142 58.690712998621166,187.90556834306147 C55.167275998621164,197.40556834306147 53.104775998621164,208.36650534306142 54.73368199862119,218.50322434306145 L77.80399399862114,218.50322434306145 C71.70633799862117,210.40166234306145 66.51102599862116,201.91728734306145 60.74930699862119,193.05009934306145 C60.49149399862114,192.27666234306145 60.49149399862114,191.24931834306147 60.23368199862119,190.47588034306142 " id="svg_38"/>
<path style=" stroke:none;fill-rule:nonzero;fill:rgb(86.698914%,23.498535%,21.199036%);fill-opacity:1;" d="M121.42899399862114,207.44853734306145 C121.17508799862117,207.19072434306145 120.65946299862117,207.44853734306145 120.40165099862116,207.96416234306145 C119.21024399862114,211.67509934306145 117.33133799862117,215.31572434306145 114.8743069986212,218.50322434306145 L124.21024399862114,218.50322434306145 C124.1399319986212,218.24541234306145 124.07352599862116,217.99150534306142 124.00321299862117,217.73369334306147 C122.97196299862117,214.38994334306147 123.22977599862116,210.79228734306145 121.42899399862114,207.44853734306145 " id="svg_39"/>
<path style=" stroke:none;fill-rule:nonzero;fill:rgb(69.799805%,17.298889%,17.599487%);fill-opacity:1;" d="M167.19852599862116,154.99541234306145 C158.1555569986212,152.08916234306145 149.0618069986212,149.72197434306145 140.0930569986212,147.10478734306145 C137.88602599862116,150.61650534306142 135.82352599862116,154.07744334306147 134.13602599862116,157.69463034306142 C134.86649399862114,157.91338034306142 135.60086899862114,158.12822434306145 136.3430569986212,158.33916234306145 C137.3743069986212,158.59306834306147 138.65946299862117,159.62431834306147 139.94461899862114,160.13603734306145 C147.6555569986212,162.19463034306142 155.11258799862117,164.76494334306147 162.56961899862114,167.08134934306145 C164.30399399862114,167.51494334306147 165.99540099862116,168.12822434306145 167.69461899862114,168.71416234306145 L169.08524399862114,155.72197434306145 C168.4680569986212,155.44463034306142 167.8430569986212,155.19853734306145 167.19852599862116,154.99541234306145 " id="svg_40"/>
<path style=" stroke:none;fill-rule:nonzero;fill:rgb(86.698914%,23.498535%,21.199036%);fill-opacity:1;" d="M106.00321299862117,133.90947434306145 C104.46024399862114,133.13994334306147 102.91727599862116,133.39384934306145 101.3743069986212,132.88213034306142 C98.0618069986212,131.46025534306142 95.03446299862117,130.23759934306145 91.8274319986212,129.20244334306147 C91.4836819986212,134.22978734306145 89.50321299862117,138.06963034306142 87.66727599862116,140.60869334306147 C89.06571299862117,141.21025534306142 90.46415099862116,141.80791234306145 91.8586819986212,142.39384934306145 C94.94852599862116,143.68291234306145 98.0305569986212,145.22197434306145 100.8586819986212,146.51103734306145 C104.2024319986212,147.79619334306147 107.28836899862114,148.82353734306145 110.63211899862114,149.85088034306142 C112.94461899862114,150.87822434306145 115.00321299862117,152.16728734306145 117.31571299862117,152.67900534306142 C123.22977599862116,154.04619334306147 128.53836899862114,156.01103734306145 134.13211899862114,157.69463034306142 C135.82352599862116,154.07744334306147 137.88602599862116,150.61650534306142 140.0930569986212,147.10478734306145 C128.40165099862116,143.69853734306145 116.91336899862114,139.87431834306147 106.00321299862117,133.90947434306145 " id="svg_41"/>
<path style=" stroke:none;fill-rule:nonzero;fill:rgb(86.698914%,23.498535%,21.199036%);fill-opacity:1;" d="M211.42508799862117,188.16338034306142 C209.80008799862117,187.54228734306145 208.18290099862116,186.90556834306147 206.56961899862114,186.26103734306145 C207.07352599862116,186.88994334306147 207.5774319986212,187.52275534306142 208.08133799862117,188.16338034306142 C211.42508799862117,191.76103734306145 212.4524319986212,199.73369334306147 206.53836899862114,201.27666234306145 C199.85477599862116,203.07744334306147 197.7961819986212,196.13213034306142 195.74149399862114,191.50713034306142 C190.33915099862116,192.53447434306145 184.42508799862117,196.90556834306147 184.94071299862117,202.81963034306142 C187.25321299862117,201.53447434306145 189.8274319986212,199.47588034306142 192.1399319986212,200.50322434306145 C195.4836819986212,202.04619334306147 195.99540099862116,207.19072434306145 194.4524319986212,210.01884934306145 C193.16727599862116,212.33525534306142 189.8274319986212,212.84697434306145 187.25321299862117,213.62041234306145 C183.08915099862116,214.60478734306145 178.9211819986212,215.31181834306147 174.95633799862117,216.37822434306145 C195.68290099862116,215.75322434306145 220.78836899862114,202.97588034306142 233.23758799862117,195.86650534306142 C225.95633799862117,193.44463034306142 218.7180569986212,190.84697434306145 211.42508799862117,188.16338034306142 " id="svg_42"/>
<path style=" stroke:none;fill-rule:nonzero;fill:rgb(86.698914%,23.498535%,21.199036%);fill-opacity:1;" d="M234.3743069986212,193.09306834306147 C233.81571299862117,192.35869334306147 233.33524399862114,191.62822434306145 232.92899399862114,190.90166234306145 C231.5461819986212,188.44463034306142 234.13602599862116,185.67119334306147 236.7024319986212,186.83916234306145 C237.55008799862117,187.22588034306142 238.42899399862114,187.57744334306147 239.35086899862114,187.78447434306145 L236.85477599862116,182.68291234306145 C235.83915099862116,182.11259934306145 234.73758799862117,181.42509934306145 233.53836899862114,180.57744334306147 C223.99540099862116,173.86259934306145 226.35086899862114,173.49150534306142 226.97977599862116,173.49150534306142 C206.00321299862117,171.73369334306147 190.47586899862114,172.54228734306145 179.01102599862116,174.77275534306142 C189.90165099862116,179.21806834306147 200.51102599862116,183.99541234306145 211.42508799862117,188.16338034306142 C218.7180569986212,190.84697434306145 225.95633799862117,193.44463034306142 233.23758799862117,195.86650534306142 C234.07352599862116,195.38994334306147 234.84696299862117,194.94072434306145 235.5618069986212,194.51884934306145 C235.16336899862114,194.08134934306145 234.76883799862117,193.60869334306147 234.3743069986212,193.09306834306147 " id="svg_43"/>
<path style=" stroke:none;fill-rule:nonzero;fill:rgb(86.698914%,23.498535%,21.199036%);fill-opacity:1;" d="M171.56961899862114,29.772755343061448 C169.51102599862116,25.401662343061446 163.85477599862116,28.229787343061446 161.54227599862116,31.057912343061446 C158.97196299862117,34.401662343061446 160.76883799862117,40.31572434306145 164.62821299862117,41.85869334306145 C169.8586819986212,43.98369334306145 176.12821299862117,45.49150534306145 180.59696299862117,48.948537343061446 C180.82352599862116,46.78447434306145 182.51102599862116,45.02275534306145 184.71024399862114,44.74931834306145 L186.7649319986212,44.49150534306145 C179.79227599862116,42.30009934306145 174.4993069986212,36.53056834306145 171.56961899862114,29.772755343061448 " id="svg_44"/>
<path style=" stroke:none;fill-rule:nonzero;fill:rgb(86.698914%,23.498535%,21.199036%);fill-opacity:1;" d="M146.47196299862117,13.542287343061446 C148.16336899862114,15.104787343061446 149.37821299862117,16.690724343061447 150.23758799862117,18.229787343061446 C149.72196299862117,15.679005343061448 148.9836819986212,13.151662343061446 148.09696299862117,10.729787343061446 C147.6868069986212,11.268849343061447 147.29227599862116,11.843068343061447 146.9211819986212,12.464162343061446 L146.46024399862114,13.530568343061447 C146.46415099862116,13.534474343061447 146.4680569986212,13.538380343061448 146.47196299862117,13.542287343061446 " id="svg_45"/>
<path style=" stroke:none;fill-rule:nonzero;fill:rgb(86.698914%,23.498535%,21.199036%);fill-opacity:1;" d="M177.22586899862114,19.229787343061446 C181.93290099862116,19.975880343061448 187.59696299862117,20.241505343061448 190.76102599862116,16.116505343061448 C190.5774319986212,15.917287343061446 190.38602599862116,15.721974343061447 190.1868069986212,15.538380343061448 C186.92899399862114,12.495412343061446 180.30008799862117,8.304005343061448 173.00321299862117,5.9211933430614465 C174.30399399862114,8.800099343061447 174.9680569986212,12.163380343061448 175.42508799862117,15.374318343061447 C175.68290099862116,16.659474343061447 176.19852599862116,18.975880343061448 177.22586899862114,19.229787343061446 " id="svg_46"/>
<path style=" stroke:none;fill-rule:nonzero;fill:rgb(86.698914%,23.498535%,21.199036%);fill-opacity:1;" d="M149.19852599862116,42.374318343061454 C145.94852599862116,39.12431834306145 139.8118069986212,38.59697434306145 137.37821299862117,34.71806834306145 L135.13602599862116,39.95244334306145 L148.9055569986212,65.02275534306145 C153.41336899862114,57.65947434306145 155.05008799862117,48.00713034306145 149.19852599862116,42.374318343061454 " id="svg_47"/>
<path style=" stroke:none;fill-rule:nonzero;fill:rgb(86.698914%,23.498535%,21.199036%);fill-opacity:1;" d="M192.01883799862117,17.718068343061447 C190.47586899862114,22.565724343061447 187.3430569986212,28.018849343061447 191.1086819986212,31.315724343061447 C191.47977599862116,31.624318343061447 192.0149319986212,31.725880343061448 192.6086819986212,31.663380343061448 L192.89383799862117,28.866505343061448 C194.52665099862116,25.186818343061447 194.14383799862117,20.991505343061448 192.01883799862117,17.718068343061447 " id="svg_48"/>
<path style=" stroke:none;fill-rule:nonzero;fill:rgb(86.698914%,23.498535%,21.199036%);fill-opacity:1;" d="M140.73758799862117,26.886037343061446 L139.47196299862117,29.835255343061448 C140.7336819986212,29.846974343061447 141.9993069986212,29.651662343061446 143.17899399862114,29.261037343061446 C142.29227599862116,28.620412343061446 141.47977599862116,27.815724343061447 140.73758799862117,26.886037343061446 " id="svg_49"/>
<path style=" stroke:none;fill-rule:nonzero;fill:rgb(69.799805%,17.298889%,17.599487%);fill-opacity:1;" d="M137.88602599862116,9.846974343061447 C137.88602599862116,9.846974343061447 145.47196299862117,17.948537343061446 147.40165099862116,20.647755343061448 C147.40165099862116,20.647755343061448 141.9993069986212,21.804005343061448 146.24149399862114,25.143849343061447 C146.24149399862114,25.143849343061447 136.60086899862114,27.846974343061447 137.88602599862116,9.846974343061447 " id="svg_50"/>
<path style=" stroke:none;fill-rule:nonzero;fill:rgb(69.799805%,17.298889%,17.599487%);fill-opacity:1;" d="M171.76102599862116,54.136037343061446 C171.56961899862114,53.74931834306145 177.03446299862117,53.042287343061446 177.67508799862117,54.45634934306145 C178.31961899862114,55.870412343061446 176.3274319986212,56.70634934306145 176.3274319986212,56.70634934306145 C176.3274319986212,56.70634934306145 172.4055569986212,55.42119334306145 171.76102599862116,54.136037343061446 " id="svg_51"/>
<path style=" stroke:none;fill-rule:nonzero;fill:rgb(57.299805%,17.599487%,21.598816%);fill-opacity:1;" d="M192.2336819986212,36.06181834306145 C193.88211899862114,36.198537343061446 220.03446299862117,37.97197434306145 223.60086899862114,13.081349343061447 C223.65165099862116,12.741505343061448 223.21024399862114,12.569630343061448 223.02274399862114,12.854787343061446 C220.21415099862116,17.108693343061447 209.67508799862117,30.733693343061447 192.3274319986212,26.077443343061447 C192.2180569986212,26.046193343061447 192.10477599862116,26.077443343061447 192.02274399862114,26.155568343061447 C191.14383799862117,27.030568343061447 186.31571299862117,32.25322434306145 192.08524399862114,36.011037343061446 C192.13211899862114,36.042287343061446 192.18290099862116,36.057912343061446 192.2336819986212,36.06181834306145 " id="svg_52"/>
<path style=" stroke:none;fill-rule:nonzero;fill:rgb(57.299805%,17.599487%,21.598816%);fill-opacity:1;" d="M179.60086899862114,23.354787343061446 C181.2493069986212,23.491505343061448 207.40165099862116,25.261037343061446 210.9680569986212,0.37041234306144605 C211.0149319986212,0.03447434306144715 210.5774319986212,-0.1413066569385535 210.3899319986212,0.14384934306144725 C207.58133799862117,4.397755343061448 197.03836899862114,18.026662343061446 179.69461899862114,13.366505343061448 C179.58524399862114,13.335255343061448 179.4680569986212,13.366505343061448 179.3899319986212,13.444630343061448 C178.51102599862116,14.319630343061448 173.68290099862116,19.546193343061447 179.4524319986212,23.300099343061447 C179.49540099862116,23.331349343061447 179.5461819986212,23.346974343061447 179.60086899862114,23.354787343061446 " id="svg_53"/>
<path style=" stroke:none;fill-rule:nonzero;fill:rgb(99.198914%,84.698486%,23.098755%);fill-opacity:1;" d="M167.45633799862117,31.917287343061446 C167.45633799862117,31.917287343061446 174.22586899862114,34.48759934306145 173.02665099862116,41.343068343061454 C171.8274319986212,48.20244334306145 162.4836819986212,34.14775534306145 167.45633799862117,31.917287343061446 " id="svg_54"/>
<path style=" stroke:none;fill-rule:nonzero;fill:rgb(99.198914%,84.698486%,23.098755%);fill-opacity:1;" d="M178.6399319986212,45.50322434306145 C178.6399319986212,45.50322434306145 181.16727599862116,44.25713034306145 181.55399399862114,45.50322434306145 C181.94071299862117,46.745412343061446 177.74149399862114,48.20244334306145 178.6399319986212,45.50322434306145 " id="svg_55"/>
<path style=" stroke:none;fill-rule:nonzero;fill:rgb(86.698914%,23.498535%,21.199036%);fill-opacity:1;" d="M257.79227599862116,193.84306834306147 C254.80790099862116,194.78056834306147 249.62821299862117,195.98369334306147 247.5461819986212,193.88603734306145 C247.41727599862116,193.84306834306147 247.28446299862117,193.81181834306147 247.15946299862117,193.76494334306147 C249.7336819986212,196.40166234306145 254.4368069986212,196.03056834306147 258.21024399862114,195.11650534306142 " id="svg_56"/>
<path style=" stroke:none;fill-rule:nonzero;fill:rgb(86.698914%,23.498535%,21.199036%);fill-opacity:1;" d="M246.92508799862117,192.96025534306142 C244.9836819986212,188.32353734306145 252.87821299862117,185.75322434306145 252.87821299862117,185.75322434306145 L250.86258799862117,185.02666234306145 C250.74540099862116,185.04619334306147 250.62821299862117,185.05400534306142 250.50711899862114,185.07744334306147 C248.92508799862117,185.39384934306145 247.55790099862116,186.01494334306147 246.21415099862116,186.59697434306145 C246.2493069986212,186.85478734306145 246.22586899862114,187.12431834306147 246.13602599862116,187.38994334306147 C244.85086899862114,189.44853734306145 244.5930569986212,192.53447434306145 246.65165099862116,193.56181834306147 C246.94461899862114,193.68681834306147 247.24540099862116,193.78447434306145 247.55008799862117,193.88603734306145 C247.29227599862116,193.62822434306145 247.0774319986212,193.32744334306147 246.92508799862117,192.96025534306142 " id="svg_57"/>
<path style=" stroke:none;fill-rule:nonzero;fill:rgb(86.698914%,23.498535%,21.199036%);fill-opacity:1;" d="M172.39383799862117,106.25322434306145 C162.08915099862116,106.24150534306142 151.78836899862114,106.13994334306147 141.4836819986212,106.13994334306147 C141.9993069986212,107.17119334306147 142.5149319986212,108.45244334306147 142.77274399862114,109.22588034306142 C143.02665099862116,112.56572434306145 145.08524399862114,119.25322434306145 141.4836819986212,119.76884934306145 C140.45633799862117,119.76884934306145 139.1711819986212,118.99541234306145 138.40165099862116,118.73759934306145 C136.8586819986212,118.22588034306142 135.31571299862117,116.94072434306145 134.0305569986212,115.65166234306145 C132.22977599862116,113.85478734306145 130.6868069986212,111.79619334306147 128.88602599862116,109.99541234306145 C121.6868069986212,102.54228734306145 116.5461819986212,94.05400534306142 111.91727599862116,85.05400534306142 C109.8586819986212,80.94072434306145 108.05790099862116,77.08525534306142 105.22977599862116,73.22978734306145 C103.94461899862114,71.68681834306147 103.6868069986212,69.88603734306145 102.91727599862116,68.08525534306142 C98.9368069986212,60.98759934306145 94.14383799862117,54.24150534306145 91.19852599862116,46.901662343061446 L73.94852599862116,43.65947434306145 C73.94852599862116,43.65947434306145 66.1711819986212,40.401662343061446 56.698525998621164,37.92509934306145 C56.92899399862114,45.807912343061446 57.88211899862114,53.78838034306145 60.49149399862114,61.39775534306145 C60.49149399862114,61.39775534306145 61.261025998621164,61.65556834306145 61.776650998621164,61.39775534306145 C64.60477599862116,59.854787343061446 68.20633799862117,56.51494334306145 70.00321299862117,58.82744334306145 C75.33524399862114,65.34306834306145 75.3586819986212,73.82353734306145 74.38602599862116,82.18291234306145 C74.44071299862117,82.25322434306145 74.49540099862116,82.32353734306145 74.55008799862117,82.39775534306142 C72.5618069986212,79.85869334306147 70.44071299862117,77.40556834306147 68.20633799862117,75.02666234306145 C63.13993199862119,69.85088034306142 57.64774399862114,65.14775534306145 51.729775998621164,61.09697434306145 C62.596962998621166,75.91728734306145 74.1868069986212,94.88213034306142 83.8899319986212,107.58916234306145 C86.51883799862117,111.03447434306145 88.36649399862114,114.26103734306145 89.6243069986212,117.26494334306147 C91.5149319986212,121.77275534306142 92.0618069986212,125.77275534306142 91.8274319986212,129.21806834306147 C95.0305569986212,130.24931834306147 98.0618069986212,131.46416234306145 101.3743069986212,132.88213034306142 C102.91727599862116,133.39775534306142 104.46024399862114,133.13994334306147 106.00321299862117,133.90947434306145 C123.33915099862116,143.38603734306145 142.13211899862114,147.46416234306145 160.88602599862116,153.04619334306147 C160.80399399862114,148.55400534306142 160.89774399862114,143.98759934306145 161.28446299862117,139.56572434306145 C161.28446299862117,139.05400534306142 162.05790099862116,138.28056834306147 162.3118069986212,138.28056834306147 C164.88602599862116,136.73759934306145 168.4836819986212,136.47978734306145 170.54227599862116,138.28056834306147 C170.66727599862116,138.40947434306145 170.78836899862114,138.54619334306147 170.90946299862117,138.68291234306145 L173.30008799862117,116.32353734306145 C173.66336899862114,112.91728734306145 173.34696299862117,109.49931834306147 172.39383799862117,106.25322434306145 " id="svg_58"/>
<path style=" stroke:none;fill-rule:nonzero;fill:rgb(57.299805%,17.599487%,21.598816%);fill-opacity:1;" d="M65.30790099862116,114.78056834306147 L43.776650998621164,106.78056834306147 C43.776650998621164,106.78056834306147 1.1868069986211651,93.39384934306145 0.0032129986211657537,96.63994334306147 C-0.3288180013788351,97.55400534306142 25.104775998621164,107.80400534306142 61.620400998621164,121.97978734306145 C62.073525998621164,119.83916234306145 63.21805699862119,117.44072434306145 65.30790099862116,114.78056834306147 " id="svg_59"/>
<path style=" stroke:none;fill-rule:nonzero;fill:rgb(57.299805%,17.599487%,21.598816%);fill-opacity:1;" d="M252.87821299862117,185.75322434306145 L247.29227599862116,183.74541234306145 C247.29227599862116,183.74541234306145 244.2493069986212,188.11650534306142 233.53836899862114,180.57744334306147 C229.07352599862116,177.43681834306147 227.2180569986212,175.68681834306147 226.56571299862117,174.71025534306142 L91.6711819986212,124.57744334306147 C92.1086819986212,127.90556834306147 91.81571299862117,130.84697434306145 91.13602599862116,133.37041234306145 C136.13602599862116,150.65556834306147 189.96024399862114,171.01103734306145 233.46415099862116,187.38994334306147 C234.2649319986212,186.62431834306147 235.47977599862116,186.28447434306145 236.7024319986212,186.83916234306145 C237.73758799862117,187.31181834306147 238.8118069986212,187.74150534306142 239.96415099862116,187.90556834306147 C242.3899319986212,188.21025534306142 244.2805569986212,187.44072434306145 246.21415099862116,186.59697434306145 C246.2493069986212,186.85478734306145 246.22586899862114,187.12431834306147 246.13602599862116,187.38994334306147 C245.30008799862117,188.72588034306142 244.91336899862114,190.48759934306145 245.2961819986212,191.84697434306145 C245.77665099862116,192.02666234306145 246.25711899862114,192.20634934306145 246.7336819986212,192.38603734306145 C245.6399319986212,188.10869334306147 252.87821299862117,185.75322434306145 252.87821299862117,185.75322434306145 " id="svg_60"/>
<path style=" stroke:none;fill-rule:nonzero;fill:rgb(99.198914%,84.698486%,23.098755%);fill-opacity:1;" d="M328.8352439986212,184.19853734306145 C308.76493199862114,172.37041234306145 305.44071299862117,162.72588034306142 305.44071299862117,162.72588034306142 C305.44071299862117,162.72588034306142 302.1829009986212,169.68291234306145 303.98368199862114,177.02666234306145 C305.9602439986212,180.40556834306147 308.6204009986212,183.33916234306145 312.21805699862114,185.33525534306142 C319.15946299862117,189.19072434306145 326.1008689986212,193.81963034306142 330.21805699862114,200.50322434306145 C329.4446189986212,201.01884934306145 328.4172759986212,199.21806834306147 328.4172759986212,199.99150534306142 C328.4172759986212,204.62041234306145 325.5891509986212,208.47588034306142 321.98758799862117,211.05009934306145 C321.98758799862117,208.33916234306145 321.85868199862114,205.43291234306145 321.08133799862117,202.82353734306145 C320.37821299862117,203.02275534306142 319.3860259986212,202.79228734306145 318.17118199862114,202.01103734306145 C312.23368199862114,198.21025534306142 296.6204009986212,180.46416234306145 280.38993199862114,184.97588034306142 C266.21024399862114,188.92119334306147 252.48758799862117,193.63994334306147 244.23758799862117,192.21025534306142 C251.57352599862116,194.42119334306147 269.77274399862114,199.16728734306145 281.31180699862114,195.86650534306142 C285.96805699862114,194.53447434306145 289.03055699862114,196.30791234306145 291.04618199862114,199.35869334306147 C292.4641509986212,199.81181834306147 293.81180699862114,200.50322434306145 294.9914939986212,201.53447434306145 C299.35868199862114,205.13603734306145 299.35868199862114,212.84697434306145 305.7883689986212,213.62041234306145 C305.7883689986212,211.56181834306147 305.53055699862114,209.24931834306147 306.04618199862114,207.19072434306145 C309.62430699862114,211.12822434306145 313.42118199862114,215.28056834306147 317.7258689986212,218.50322434306145 L342.2297759986212,218.50322434306145 C342.2297759986212,218.50322434306145 343.4914939986212,215.89775534306142 344.42118199862114,211.72197434306145 C344.42118199862114,211.72197434306145 348.90946299862117,196.02666234306145 328.8352439986212,184.19853734306145 " id="svg_61"/>
</g><image id="svg_62" x="127.36258799862117" y="103.61259934306145" width="1" height="0" xlink:href="logo/vector_paint_icon256.png" style="color: rgb(0, 0, 0);" class=""/></g></svg>