<?xml version="1.0" encoding="UTF-8" standalone="no"?>
<svg
   xmlns:dc="http://purl.org/dc/elements/1.1/"
   xmlns:cc="http://creativecommons.org/ns#"
   xmlns:rdf="http://www.w3.org/1999/02/22-rdf-syntax-ns#"
   xmlns:svg="http://www.w3.org/2000/svg"
   xmlns="http://www.w3.org/2000/svg"
   viewBox="0 0 656.60037 246.765"
   height="246.765"
   width="656.6004"
   xml:space="preserve"
   version="1.1"
   id="svg3355"><metadata
     id="metadata3361"><rdf:RDF><cc:Work
         rdf:about=""><dc:format>image/svg+xml</dc:format><dc:type
           rdf:resource="http://purl.org/dc/dcmitype/StillImage" /><dc:title></dc:title></cc:Work></rdf:RDF></metadata><defs
     id="defs3359"><clipPath
       id="clipPath3369"
       clipPathUnits="userSpaceOnUse"><path
         id="path3371"
         d="m 0,595.28 841.89,0 L 841.89,0 0,0 0,595.28 Z" /></clipPath></defs><g
     transform="matrix(1.25,0,0,-1.25,-197.88125,495.43237)"
     id="g3363"><g
       id="g3365"><g
         clip-path="url(#clipPath3369)"
         id="g3367"><g
           transform="translate(191.533,276.2035)"
           id="g3373"><path
             id="path3375"
             style="fill:#110f0d;fill-opacity:1;fill-rule:nonzero;stroke:none"
             d="m 0,0 -13.487,0 0,-11.434 13.487,0 c 3.323,0 5.961,2.248 5.961,5.668 C 5.961,-2.248 3.323,0 0,0 m -33.228,-39.872 0,45.834 c 0,6.743 3.713,10.457 10.457,10.457 l 25.312,0 c 15.245,0 23.454,-10.164 23.454,-22.38 0,-12.118 -8.209,-21.892 -23.454,-21.892 l -16.028,0 0,-12.019 c 0,-5.375 -4.398,-9.871 -9.87,-9.871 -5.474,0 -9.871,4.496 -9.871,9.871" /></g><g
           transform="translate(224.8328,235.3539)"
           id="g3377"><path
             id="path3379"
             style="fill:#110f0d;fill-opacity:1;fill-rule:nonzero;stroke:none"
             d="m 0,0 0,47.397 c 0,5.375 4.397,9.872 9.87,9.872 5.473,0 9.871,-4.497 9.871,-9.872 L 19.741,0 c 0,-5.375 -4.398,-9.87 -9.871,-9.87 C 4.397,-9.87 0,-5.375 0,0" /></g><g
           transform="translate(278.9232,258.9057)"
           id="g3381"><path
             id="path3383"
             style="fill:#110f0d;fill-opacity:1;fill-rule:nonzero;stroke:none"
             d="m 0,0 c 0,20.132 15.441,33.717 35.377,33.717 11.337,0 18.959,-4.106 24.041,-9.676 1.466,-1.661 2.541,-3.909 2.541,-6.353 0,-5.081 -4.202,-9.283 -9.381,-9.283 -2.737,0 -5.278,1.172 -6.939,3.127 -2.541,2.932 -6.157,4.789 -10.262,4.789 -8.991,0 -15.343,-7.232 -15.343,-16.321 0,-9.088 6.352,-16.32 15.343,-16.32 4.105,0 7.721,1.856 10.262,4.789 1.661,1.954 4.202,3.127 6.939,3.127 5.081,0 9.283,-4.202 9.283,-9.284 0,-2.346 -0.977,-4.496 -2.443,-6.158 -5.179,-5.57 -12.802,-9.87 -24.041,-9.87 C 15.441,-33.716 0,-20.034 0,0" /></g><g
           transform="translate(392.6043,235.3539)"
           id="g3385"><path
             id="path3387"
             style="fill:#110f0d;fill-opacity:1;fill-rule:nonzero;stroke:none"
             d="m 0,0 0,16.027 -24.677,0 0,-16.027 c 0,-5.375 -4.397,-9.87 -9.87,-9.87 -5.473,0 -9.87,4.495 -9.87,9.87 l 0,47.397 c 0,5.375 4.397,9.872 9.87,9.872 5.473,0 9.87,-4.497 9.87,-9.872 l 0,-14.169 24.677,0 0,14.169 c 0,5.375 4.398,9.872 9.871,9.872 5.472,0 9.87,-4.497 9.87,-9.872 L 19.741,0 c 0,-5.375 -4.398,-9.87 -9.87,-9.87 C 4.398,-9.87 0,-5.375 0,0" /></g><g
           transform="translate(419.6497,236.3315)"
           id="g3389"><path
             id="path3391"
             style="fill:#110f0d;fill-opacity:1;fill-rule:nonzero;stroke:none"
             d="m 0,0 0,45.834 c 0,6.743 3.714,10.457 10.457,10.457 l 35.621,0 c 4.496,0 8.21,-3.714 8.21,-8.209 0,-4.496 -3.714,-8.21 -8.21,-8.21 l -26.338,0 0,-7.622 26.339,0 c 4.495,0 8.209,-3.714 8.209,-8.209 0,-4.496 -3.714,-8.21 -8.209,-8.21 l -26.339,0 0,-15.831 c 0,-5.375 -4.397,-9.871 -9.87,-9.871 C 4.397,-9.871 0,-5.375 0,0" /></g><g
           transform="translate(516.9124,275.227)"
           id="g3393"><path
             id="path3395"
             style="fill:#110f0d;fill-opacity:1;fill-rule:nonzero;stroke:none"
             d="m 0,0 c -9.479,0 -15.637,-7.232 -15.637,-16.321 0,-9.088 6.158,-16.321 15.637,-16.321 9.479,0 15.636,7.233 15.636,16.321 C 15.636,-7.232 9.479,0 0,0 m 0,17.396 c 20.132,0 35.67,-13.683 35.67,-33.717 0,-20.034 -15.538,-33.716 -35.67,-33.716 -20.132,0 -35.671,13.682 -35.671,33.716 0,20.034 15.539,33.717 35.671,33.717" /></g><g
           transform="translate(579.6282,264.7699)"
           id="g3397"><path
             id="path3399"
             style="fill:#110f0d;fill-opacity:1;fill-rule:nonzero;stroke:none"
             d="m 0,0 12.998,0 c 3.322,0 6.45,2.149 6.45,5.766 0,3.518 -3.128,5.668 -6.45,5.668 L 0,11.434 0,0 Z m 36.648,-22.282 c 1.466,-1.759 2.15,-4.105 2.15,-6.156 0,-5.865 -4.788,-9.872 -9.87,-9.872 -3.616,0 -6.45,1.956 -7.916,4.007 l -12.608,17.884 -8.404,0 0,-12.019 c 0,-5.375 -4.398,-9.872 -9.871,-9.872 -5.473,0 -9.87,4.497 -9.87,9.872 l 0,45.834 c 0,6.743 3.714,10.457 10.457,10.457 l 25.311,0 c 15.246,0 23.455,-10.165 23.455,-22.38 0,-9.969 -5.179,-15.832 -9.968,-18.764 l 7.134,-8.991 z" /></g><g
           transform="translate(683.5853,235.1586)"
           id="g3401"><path
             id="path3403"
             style="fill:#110f0d;fill-opacity:1;fill-rule:nonzero;stroke:none"
             d="m 0,0 c 0,-4.887 -3.909,-9.675 -9.577,-9.675 -3.323,0 -5.864,1.564 -7.233,3.225 l -16.515,20.62 -4.105,-4.886 0,-9.089 c 0,-5.375 -4.397,-9.87 -9.87,-9.87 -5.473,0 -9.871,4.495 -9.871,9.87 l 0,47.398 c 0,5.375 4.398,9.871 9.871,9.871 5.473,0 9.87,-4.496 9.87,-9.871 l 0,-15.441 19.448,22.282 c 1.759,1.955 4.203,3.03 6.84,3.03 5.572,0 9.187,-4.789 9.187,-9.284 0,-2.444 -0.879,-4.594 -2.149,-5.962 L -18.959,26.289 -2.15,6.059 C -0.782,4.495 0,2.345 0,0" /></g><g
           transform="translate(291.3602,376.6049)"
           id="g3405"><path
             id="path3407"
             style="fill:#de2c32;fill-opacity:1;fill-rule:nonzero;stroke:none"
             d="m 0,0 0,-49.334 c 0,-5.443 -4.428,-9.871 -9.871,-9.871 l -9.87,0 0,29.593 -9.871,9.871 -9.87,-9.871 0,-29.593 -9.871,0 c -5.442,0 -9.87,4.428 -9.87,9.871 l 0,49.334 -19.741,19.741 0,-69.075 c 0,-16.328 13.283,-29.612 29.611,-29.612 l 9.871,0 0,-88.854 c 0,-5.451 4.419,-9.871 9.87,-9.871 5.451,0 9.871,4.42 9.871,9.871 l 0,88.854 9.87,0 c 16.329,0 29.612,13.284 29.612,29.612 l 0,69.075 L 0,0 Z" /></g></g></g></g></svg>