<svg xmlns="http://www.w3.org/2000/svg" viewBox="0 0 656.6 246.765" height="246.765" width="656.6"><defs><clipPath id="a" clipPathUnits="userSpaceOnUse"><path d="M0 595.28h841.89V0H0v595.28z"/></clipPath></defs><g clip-path="url(#a)" transform="matrix(1.25 0 0 -1.25 -197.881 495.432)"><path d="M191.533 276.204h-13.487V264.77h13.487c3.323 0 5.961 2.248 5.961 5.668 0 3.518-2.638 5.766-5.961 5.766m-33.228-39.872v45.834c0 6.743 3.713 10.457 10.457 10.457h25.312c15.245 0 23.454-10.164 23.454-22.38 0-12.118-8.209-21.892-23.454-21.892h-16.028v-12.02c0-5.374-4.398-9.87-9.87-9.87-5.474 0-9.871 4.495-9.871 9.87m66.528-.977v47.397c0 5.375 4.397 9.872 9.87 9.872 5.473 0 9.87-4.497 9.87-9.872v-47.397c0-5.375-4.397-9.87-9.87-9.87-5.473 0-9.87 4.495-9.87 9.87m54.09 23.552c0 20.132 15.441 33.717 35.377 33.717 11.337 0 18.96-4.106 24.041-9.676 1.466-1.661 2.541-3.91 2.541-6.353 0-5.081-4.202-9.283-9.38-9.283-2.738 0-5.279 1.172-6.94 3.127-2.54 2.932-6.157 4.789-10.262 4.789-8.99 0-15.343-7.232-15.343-16.321 0-9.088 6.352-16.32 15.343-16.32 4.105 0 7.721 1.856 10.262 4.789 1.661 1.954 4.202 3.127 6.94 3.127 5.08 0 9.282-4.202 9.282-9.284 0-2.346-.977-4.496-2.443-6.158-5.179-5.57-12.802-9.87-24.04-9.87-19.937 0-35.378 13.682-35.378 33.716m113.681-23.552v16.027h-24.677v-16.027c0-5.375-4.397-9.87-9.87-9.87-5.473 0-9.87 4.495-9.87 9.87v47.397c0 5.375 4.397 9.872 9.87 9.872 5.473 0 9.87-4.497 9.87-9.872v-14.17h24.677v14.17c0 5.375 4.398 9.872 9.871 9.872 5.472 0 9.87-4.497 9.87-9.872v-47.397c0-5.375-4.398-9.87-9.87-9.87-5.473 0-9.87 4.495-9.87 9.87m27.045.978v45.834c0 6.743 3.714 10.457 10.457 10.457h35.62c4.497 0 8.21-3.714 8.21-8.21s-3.713-8.21-8.21-8.21H439.39v-7.621h26.339c4.495 0 8.209-3.714 8.209-8.21s-3.714-8.21-8.21-8.21H439.39v-15.83c0-5.375-4.397-9.871-9.87-9.871-5.473 0-9.87 4.495-9.87 9.87m97.262 38.896c-9.479 0-15.637-7.232-15.637-16.321 0-9.088 6.158-16.321 15.637-16.321 9.48 0 15.636 7.233 15.636 16.321 0 9.089-6.157 16.321-15.636 16.321m0 17.396c20.132 0 35.67-13.683 35.67-33.717s-15.538-33.716-35.67-33.716-35.67 13.682-35.67 33.716 15.538 33.717 35.67 33.717m62.716-27.853h12.998c3.322 0 6.45 2.149 6.45 5.766 0 3.518-3.128 5.668-6.45 5.668h-12.998V264.77zm36.648-22.282c1.466-1.76 2.15-4.105 2.15-6.156 0-5.865-4.788-9.872-9.87-9.872-3.616 0-6.45 1.956-7.916 4.007l-12.608 17.884h-8.404v-12.02c0-5.374-4.398-9.871-9.87-9.871-5.474 0-9.87 4.497-9.87 9.872v45.834c0 6.743 3.713 10.457 10.456 10.457h25.311c15.246 0 23.455-10.165 23.455-22.38 0-9.97-5.179-15.832-9.968-18.764l7.134-8.991zm67.309-7.329c0-4.887-3.909-9.675-9.577-9.675-3.323 0-5.864 1.564-7.233 3.225l-16.515 20.62-4.105-4.886v-9.09c0-5.374-4.397-9.87-9.87-9.87-5.473 0-9.87 4.496-9.87 9.87v47.399c0 5.375 4.397 9.87 9.87 9.87 5.473 0 9.87-4.495 9.87-9.87V267.31l19.448 22.282c1.76 1.955 4.203 3.03 6.84 3.03 5.572 0 9.187-4.79 9.187-9.284 0-2.444-.879-4.594-2.149-5.962l-14.855-15.93 16.81-20.23c1.367-1.563 2.15-3.713 2.15-6.058" fill="#110f0d"/><path d="M291.36 376.605V327.27c0-5.443-4.428-9.871-9.87-9.871h-9.87v29.593l-9.872 9.87-9.87-9.87V317.4h-9.87c-5.443 0-9.87 4.428-9.87 9.87v49.335l-19.742 19.74v-69.074c0-16.328 13.283-29.612 29.611-29.612h9.871v-88.854c0-5.451 4.42-9.871 9.87-9.871 5.451 0 9.871 4.42 9.871 9.87v88.855h9.87c16.33 0 29.612 13.284 29.612 29.612v69.075l-19.74-19.741z" fill="#de2c32"/></g></svg>