<svg xmlns="http://www.w3.org/2000/svg" width="367" height="219"><rect width="100%" height="100%" fill="none"/><g class="currentLayer"><path d="M287.534 153.195c-.785-6.133-1.238-12.328-2.367-18.258a29.26 29.26 0 01-.672 6.87c-1.398 6.34.426 13.45 2.27 19.579 2.742 2.66 6.059 4.723 9.77 5.438-3.602-4.372-8.231-8.743-9-13.63m34.215 17.743s-3.352-15.942 8.214-21.856c0 0 2.703 21.504 11.762 34.664 9.058 13.16-19.977-12.808-19.977-12.808" fill="#fdd83b"/><path d="M332.066 172.44c-22.934-17.96-39.172-30.66-39.024-38.195.149-7.535-14.133-18.847-14.133-18.847s6.06 8.48 6.258 19.539c1.13 5.93 1.582 12.125 2.367 18.258.77 4.886 5.399 9.257 9 13.629-3.71-.715-7.027-2.778-9.77-5.438 2.294 7.617 4.622 13.73.864 14.988-6.781 2.274-15.312 8.11-21.844-18.46-4.753-19.333-20.093-28.153-37.05-31.028.402.106.804.215 1.203.34 9.258 2.312 17.484 7.457 22.887 15.941 5.398 8.227 4.367 18 2.566 27 0 1.028-2.313-2.832-3.34-4.117 1.027 12.598 7.711 25.457 18 32.914-11.535.719-19.7-8.664-27.434-16.398 1.297 4.676 4.711 9.07 12.266 13.02 22.348 11.683 13.54 23.972 5.559 14.948-7.98-9.023-6.793-14.304-20.524-12.554-13.734 1.754-13.285 12.039-13.285 12.039s14.61-7.715 20.527 8.484h95.07s12.77-28.105-10.163-46.062" fill="#f8973f"/><path d="M270.05 198.964c-10.285-7.457-16.973-20.316-18-32.914 1.027 1.285 3.344 5.14 3.344 4.113 1.797-9 2.828-18.77-2.574-26.996-5.399-8.484-13.625-13.629-22.883-15.941a24.908 24.908 0 00-1.203-.34 79.047 79.047 0 00-7.754-.91c-3.012 0-6.086.34-9.137.871 7.543 3.062 30.586 13.406 32.39 26.2 1.43 10.136-4.152 20.37-1.617 29.519 7.735 7.734 15.899 17.117 27.434 16.398m10.34-61.937s-.383-23.278-17.438-27.137c0 0 5.645 24.187 17.438 27.137" fill="#fdd83b"/><path d="M206.57 186.261h.004zm40.722-2.516l3.57 1.282c-.117.015-.234.027-.355.05-1.582.317-2.95.938-4.293 1.52-1.933.844-3.824 1.613-6.25 1.309-.207-.032-.41-.079-.613-.122l-2.496-5.101c8.035 4.504 10.437 1.062 10.437 1.062m10.918 11.372l-.418-1.274c1.32-.414 2.211-.777 2.211-.777s-1.008-10.028-7.187-16.676c-6.18-6.648-25.707-2.89-25.707-2.89s-.051-.008-.13-.008c-20.976-1.758-36.503-.95-47.968 1.28-4.793.93-8.852 2.118-12.336 3.462l1.02-9.52 1.39-12.992 1.82-17.04 2.395-22.358a26.033 26.033 0 00-.906-10.07 26.107 26.107 0 00-2.63-6.028l-9.683-16.184-6.53-10.914.64-3.316 11.05 3.316 13.641-15.996a7.059 7.059 0 001.688-4.582v-3.113a4.724 4.724 0 014.14-4.688l2.051-.257.637-.079a5.02 5.02 0 004.37-4.476l.4-3.899c.023.008.042.024.066.024 1.648.137 27.8 1.91 31.367-22.985.047-.335-.39-.507-.578-.222-2.735 4.144-12.813 17.172-29.364 13.539.32-1.61.31-3.25-.039-4.82 7.473-2.493 15.485-8.211 17.348-21.204.047-.34-.39-.511-.582-.226-2.281 3.46-9.684 13.125-21.707 14.098-3.563-2.852-9.367-6.258-15.676-8.32-8.945-2.919-18.894-3.13-24.906 4.808-.41.539-.805 1.113-1.176 1.73l-.46 1.07c-8.755-8.097-13.208-10.328-13.208-10.328s1.367 16.024 7.485 23.684l-1.266 2.95-2.094 4.882-2.242 5.234-9.809 5.082-11.722 6.083-22.406-4.215-17.254-3.243s-7.774-3.257-17.246-5.734c-10.868-2.836-23.97-4.644-30.149.668v.156c-16.91 13.118-27.12 44.098 0 55.625v.09l23.387 9.793c1.054 7.61 2.156 18.258 2.258 29.988.105 12.32-.895 25.829-4.22 38.235l-8.827 46.023h98.996s-10.285-11.156-10.55-30.597c-.048-3.387.75-14.457 3.35-21.215.422-1.09.887-2.07 1.407-2.887l14.426 38.207c5.78 11.066 16.254 14.727 28.175 14.367 20.73-.629 45.836-13.402 58.286-20.511.836-.477 1.605-.926 2.324-1.348 6.398 7.066 12.957 4.25 12.957 4.25l3.941 2.742 7.98.383" fill="#f0523c"/><path d="M234.374 193.093a18.705 18.705 0 01-1.445-2.191c-1.383-2.457 1.207-5.23 3.773-4.063.848.387 1.727.738 2.649.945l-2.496-5.101a37.793 37.793 0 01-3.317-2.106c-9.543-6.714-7.187-7.085-6.558-7.085-20.977-1.758-36.504-.95-47.969 1.28 10.89 4.446 21.5 9.223 32.414 13.391 7.293 2.684 14.531 5.282 21.813 7.704.836-.477 1.609-.926 2.324-1.348-.399-.438-.793-.91-1.188-1.426" fill="#dd3c36"/><path d="M258.527 186.59c1.191 3.648 1.48 6.476 1.48 6.476s-3.305 1.343-6.629 1.82c.676.254 1.348.504 2.016.758a26.237 26.237 0 002.816-.527l.594 1.808a35288.478 35288.478 0 0055.398 20.77h28.028" fill="#922d37"/><path d="M270.968 218.503l21.367-38.36a9.813 9.813 0 0112.41-4.257l47.086 19.98 14.785 11.985-22.195-1.93-32.18-15.285c-4.785-2.27-10.507-.34-12.933 4.363l-12.14 23.504" fill="#922d37"/><path d="M221.519 141.808s-7.832-11.477-19.3-9.934c-11.47 1.543-17.83-5.953-17.83-5.953s9.415 23.29 37.13 15.887m89.941 45.66c10.606 7.266 12.344 14.582 9.621 15.356.778 2.609.907 5.515.907 8.222 3.601-2.57 6.43-6.426 6.43-11.054 0-.774 1.027 1.027 1.8.511-4.117-6.683-11.059-11.312-18-15.168-3.598-2-6.258-4.93-8.234-8.308.894 3.652 3.043 7.406 7.476 10.441m-5.414 19.722c-.515 2.06-.258 4.372-.258 6.43-6.43-.773-6.43-8.488-10.797-12.086-1.18-1.03-2.527-1.722-3.945-2.175 4.356 6.593 3.801 19.144 3.801 19.144h22.879c-4.305-3.222-8.102-7.375-11.68-11.312" fill="#f8973f"/><path d="M172.394 106.253c-10.305-.011-20.606-.113-30.91-.113a26.787 26.787 0 011.289 3.086c.254 3.34 2.312 10.027-1.29 10.543-1.027 0-2.312-.774-3.081-1.031-1.543-.512-3.086-1.797-4.371-3.086-1.801-1.797-3.344-3.856-5.145-5.657-7.2-7.453-12.34-15.941-16.969-24.941-2.058-4.113-3.86-7.969-6.687-11.824-1.285-1.543-1.543-3.344-2.313-5.145-3.98-7.097-8.773-13.843-11.718-21.183l-17.25-3.243s-7.778-3.257-17.25-5.734c.23 7.883 1.183 15.863 3.792 23.473 0 0 .77.258 1.286 0 2.828-1.543 6.43-4.883 8.226-2.57 5.332 6.515 5.356 14.996 4.383 23.355 5.402 6.844 9.82 14.281 12.848 22.414.77 1.8 1.285 3.855 1.539 5.656.332 2.32.629 4.66.851 7.012 1.89 4.508 2.438 8.508 2.203 11.953 3.204 1.031 6.235 2.246 9.547 3.664 1.543.516 3.086.258 4.63 1.027 17.335 9.477 36.128 13.555 54.882 19.137-.082-4.492.012-9.058.398-13.48 0-.512.774-1.285 1.028-1.285 2.574-1.543 6.172-1.801 8.23 0 .125.128.246.265.367.402l2.391-22.36a25.958 25.958 0 00-.906-10.07" fill="#dd3c36"/><path d="M153.554 73.128l.637-3.316-3.18-.957-2.105-3.832-13.77-25.07-9.809 5.081c6.86 13.918 14.254 27.075 24.645 38.739 1.285 1.539 3.34 4.113 4.629 3.34 1.984-.774 3.797-1.825 5.48-3.07m-82.902 59.941l-3.23-6.989s-23.7-7.199-6-25.199l-18.012-7.539c1.054 7.61 2.156 18.258 2.258 29.988 8.902 3.633 15.558 11.262 24.496 15.094a56.408 56.408 0 002.55-5.293" fill="#b22c2d"/><path d="M60.234 190.476c-.516-.77-.77-1.797-1.543-2.57-3.524 9.5-5.586 20.46-3.957 30.597h23.07c-6.098-8.101-11.293-16.586-17.055-25.453-.258-.773-.258-1.8-.515-2.574m61.195 16.973c-.254-.258-.77 0-1.027.515a34.865 34.865 0 01-5.528 10.54h9.336c-.07-.259-.136-.512-.207-.77-1.031-3.344-.773-6.942-2.574-10.285m45.246-29.215l1.02-9.52c-1.7-.586-3.391-1.203-5.125-1.633-7.457-2.316-14.914-4.886-22.625-6.945-1.286-.512-2.575-1.543-3.602-1.8a131.51 131.51 0 01-2.21-.641c-1.34 2.867-2.442 5.832-3.188 8.996.421-1.09.886-2.07 1.406-2.887l14.426 38.207s-2.313-15.21 19.898-23.777" fill="#dd3c36"/><path d="M167.199 154.995c-9.043-2.906-18.137-5.273-27.106-7.89-2.207 3.512-4.27 6.972-5.957 10.59.73.218 1.465.433 2.207.644 1.031.254 2.316 1.285 3.602 1.797 7.71 2.059 15.168 4.629 22.625 6.945 1.734.434 3.425 1.047 5.125 1.633l1.39-12.992a17.243 17.243 0 00-1.886-.727" fill="#b22c2d"/><path d="M106.003 133.91c-1.543-.77-3.086-.516-4.629-1.028-3.312-1.422-6.34-2.644-9.547-3.68-.343 5.028-2.324 8.868-4.16 11.407a565.62 565.62 0 004.192 1.785c3.09 1.289 6.172 2.828 9 4.117 3.343 1.285 6.43 2.313 9.773 3.34 2.313 1.027 4.371 2.316 6.684 2.828 5.914 1.367 11.222 3.332 16.816 5.016 1.692-3.618 3.754-7.078 5.961-10.59-11.691-3.406-23.18-7.23-34.09-13.196m105.422 54.254a347.35 347.35 0 01-4.855-1.902 287.46 287.46 0 011.511 1.902c3.344 3.598 4.371 11.57-1.543 13.114-6.683 1.8-8.742-5.145-10.797-9.77-5.402 1.027-11.316 5.399-10.8 11.313 2.312-1.286 4.886-3.344 7.199-2.317 3.344 1.543 3.855 6.688 2.312 9.516-1.285 2.316-4.625 2.828-7.199 3.601-4.164.985-8.332 1.692-12.297 2.758 20.727-.625 45.832-13.402 58.282-20.511-7.282-2.422-14.52-5.02-21.813-7.704M171.57 29.773c-2.059-4.371-7.715-1.543-10.028 1.285-2.57 3.344-.773 9.258 3.086 10.8 5.23 2.126 11.5 3.634 15.969 7.09a4.728 4.728 0 014.113-4.199l2.055-.257c-6.973-2.192-12.266-7.961-15.195-14.72m-25.098-16.23c1.691 1.563 2.906 3.149 3.766 4.688a51.772 51.772 0 00-2.141-7.5c-.41.539-.805 1.113-1.176 1.734l-.46 1.067.011.011m30.754 5.688c4.707.746 10.371 1.012 13.535-3.113a10.02 10.02 0 00-.574-.579c-3.258-3.043-9.887-7.234-17.184-9.617 1.301 2.88 1.965 6.242 2.422 9.453.258 1.285.774 3.602 1.8 3.856m-28.026 23.144c-3.25-3.25-9.387-3.777-11.82-7.656l-2.243 5.234 13.77 25.07c4.507-7.363 6.144-17.015.293-22.648m42.82-24.656c-1.543 4.848-4.676 10.3-.91 13.598.37.308.906.41 1.5.347l.285-2.796a11.741 11.741 0 00-.875-11.149m-51.281 9.168l-1.266 2.95a11.513 11.513 0 003.707-.575c-.887-.64-1.7-1.445-2.441-2.375" fill="#dd3c36"/><path d="M137.886 9.847s7.586 8.102 9.516 10.8c0 0-5.403 1.157-1.16 4.497 0 0-9.641 2.703-8.356-15.297m33.875 44.289c-.191-.387 5.273-1.094 5.914.32.645 1.414-1.348 2.25-1.348 2.25s-3.921-1.285-4.566-2.57" fill="#b22c2d"/><path d="M192.234 36.062c1.648.137 27.8 1.91 31.367-22.98.05-.34-.39-.512-.578-.227-2.809 4.254-13.348 17.879-30.696 13.222a.314.314 0 00-.304.079c-.88.875-5.707 6.097.062 9.855a.307.307 0 00.149.05M179.6 23.355c1.65.137 27.802 1.906 31.368-22.985.047-.336-.39-.511-.578-.226-2.809 4.254-13.352 17.883-30.695 13.223a.311.311 0 00-.305.078c-.879.875-5.707 6.101.062 9.855a.325.325 0 00.149.055" fill="#922d37"/><path d="M167.456 31.917s6.77 2.57 5.57 9.426c-1.199 6.86-10.542-7.195-5.57-9.426m11.184 13.586s2.527-1.246 2.914 0c.387 1.242-3.813 2.7-2.914 0" fill="#fdd83b"/><path d="M257.792 193.843c-2.984.938-8.164 2.14-10.246.043-.129-.043-.262-.074-.387-.121 2.575 2.637 7.278 2.266 11.051 1.352" fill="#dd3c36"/><path d="M246.925 192.96c-1.941-4.636 5.953-7.207 5.953-7.207l-2.015-.726c-.118.02-.235.027-.356.05-1.582.317-2.95.938-4.293 1.52.035.258.012.527-.078.793-1.285 2.059-1.543 5.144.516 6.172.293.125.593.222.898.324a2.825 2.825 0 01-.625-.926" fill="#dd3c36"/><path d="M153.554 73.128l.637-3.316-3.18-.957-2.105-3.832-13.77-25.07-9.809 5.081c6.86 13.918 14.254 27.075 24.645 38.739 1.285 1.539 3.34 4.113 4.629 3.34 1.984-.774 3.797-1.825 5.48-3.07m-82.902 59.941l-3.23-6.989s-23.7-7.199-6-25.199l-18.012-7.539c1.054 7.61 2.156 18.258 2.258 29.988 8.902 3.633 15.558 11.262 24.496 15.094a56.408 56.408 0 002.55-5.293" fill="#b22c2d"/><path d="M60.234 190.476c-.516-.77-.77-1.797-1.543-2.57-3.524 9.5-5.586 20.46-3.957 30.597h23.07c-6.098-8.101-11.293-16.586-17.055-25.453-.258-.773-.258-1.8-.515-2.574m61.195 16.973c-.254-.258-.77 0-1.027.515a34.865 34.865 0 01-5.528 10.54h9.336c-.07-.259-.136-.512-.207-.77-1.031-3.344-.773-6.942-2.574-10.285" fill="#dd3c36"/><path d="M167.199 154.995c-9.043-2.906-18.137-5.273-27.106-7.89-2.207 3.512-4.27 6.972-5.957 10.59.73.218 1.465.433 2.207.644 1.031.254 2.316 1.285 3.602 1.797 7.71 2.059 15.168 4.629 22.625 6.945 1.734.434 3.425 1.047 5.125 1.633l1.39-12.992a17.243 17.243 0 00-1.886-.727" fill="#b22c2d"/><path d="M106.003 133.91c-1.543-.77-3.086-.516-4.629-1.028-3.312-1.422-6.34-2.644-9.547-3.68-.343 5.028-2.324 8.868-4.16 11.407a565.62 565.62 0 004.192 1.785c3.09 1.289 6.172 2.828 9 4.117 3.343 1.285 6.43 2.313 9.773 3.34 2.313 1.027 4.371 2.316 6.684 2.828 5.914 1.367 11.222 3.332 16.816 5.016 1.692-3.618 3.754-7.078 5.961-10.59-11.691-3.406-23.18-7.23-34.09-13.196m105.422 54.254a347.35 347.35 0 01-4.855-1.902 287.46 287.46 0 011.511 1.902c3.344 3.598 4.371 11.57-1.543 13.114-6.683 1.8-8.742-5.145-10.797-9.77-5.402 1.027-11.316 5.399-10.8 11.313 2.312-1.286 4.886-3.344 7.199-2.317 3.344 1.543 3.855 6.688 2.312 9.516-1.285 2.316-4.625 2.828-7.199 3.601-4.164.985-8.332 1.692-12.297 2.758 20.727-.625 45.832-13.402 58.282-20.511-7.282-2.422-14.52-5.02-21.813-7.704" fill="#dd3c36"/><path d="M234.374 193.093a18.705 18.705 0 01-1.445-2.191c-1.383-2.457 1.207-5.23 3.773-4.063.848.387 1.727.738 2.649.945l-2.496-5.101a37.793 37.793 0 01-3.317-2.106c-9.543-6.714-7.187-7.085-6.558-7.085-20.977-1.758-36.504-.95-47.969 1.28 10.89 4.446 21.5 9.223 32.414 13.391 7.293 2.684 14.531 5.282 21.813 7.704.836-.477 1.609-.926 2.324-1.348-.399-.438-.793-.91-1.188-1.426M171.57 29.773c-2.059-4.371-7.715-1.543-10.028 1.285-2.57 3.344-.773 9.258 3.086 10.8 5.23 2.126 11.5 3.634 15.969 7.09a4.728 4.728 0 014.113-4.199l2.055-.257c-6.973-2.192-12.266-7.961-15.195-14.72m-25.098-16.23c1.691 1.563 2.906 3.149 3.766 4.688a51.772 51.772 0 00-2.141-7.5c-.41.539-.805 1.113-1.176 1.734l-.46 1.067.011.011m30.754 5.688c4.707.746 10.371 1.012 13.535-3.113a10.02 10.02 0 00-.574-.579c-3.258-3.043-9.887-7.234-17.184-9.617 1.301 2.88 1.965 6.242 2.422 9.453.258 1.285.774 3.602 1.8 3.856m-28.026 23.144c-3.25-3.25-9.387-3.777-11.82-7.656l-2.243 5.234 13.77 25.07c4.507-7.363 6.144-17.015.293-22.648m42.82-24.656c-1.543 4.848-4.676 10.3-.91 13.598.37.308.906.41 1.5.347l.285-2.796a11.741 11.741 0 00-.875-11.149m-51.281 9.168l-1.266 2.95a11.513 11.513 0 003.707-.575c-.887-.64-1.7-1.445-2.441-2.375" fill="#dd3c36"/><path d="M137.886 9.847s7.586 8.102 9.516 10.8c0 0-5.403 1.157-1.16 4.497 0 0-9.641 2.703-8.356-15.297m33.875 44.289c-.191-.387 5.273-1.094 5.914.32.645 1.414-1.348 2.25-1.348 2.25s-3.921-1.285-4.566-2.57" fill="#b22c2d"/><path d="M192.234 36.062c1.648.137 27.8 1.91 31.367-22.98.05-.34-.39-.512-.578-.227-2.809 4.254-13.348 17.879-30.696 13.222a.314.314 0 00-.304.079c-.88.875-5.707 6.097.062 9.855a.307.307 0 00.149.05M179.6 23.355c1.65.137 27.802 1.906 31.368-22.985.047-.336-.39-.511-.578-.226-2.809 4.254-13.352 17.883-30.695 13.223a.311.311 0 00-.305.078c-.879.875-5.707 6.101.062 9.855a.325.325 0 00.149.055" fill="#922d37"/><path d="M167.456 31.917s6.77 2.57 5.57 9.426c-1.199 6.86-10.542-7.195-5.57-9.426m11.184 13.586s2.527-1.246 2.914 0c.387 1.242-3.813 2.7-2.914 0" fill="#fdd83b"/><path d="M257.792 193.843c-2.984.938-8.164 2.14-10.246.043-.129-.043-.262-.074-.387-.121 2.575 2.637 7.278 2.266 11.051 1.352" fill="#dd3c36"/><path d="M246.925 192.96c-1.941-4.636 5.953-7.207 5.953-7.207l-2.015-.726c-.118.02-.235.027-.356.05-1.582.317-2.95.938-4.293 1.52.035.258.012.527-.078.793-1.285 2.059-1.543 5.144.516 6.172.293.125.593.222.898.324a2.825 2.825 0 01-.625-.926m-74.531-86.707c-10.305-.011-20.606-.113-30.91-.113a26.787 26.787 0 011.289 3.086c.254 3.34 2.312 10.027-1.29 10.543-1.027 0-2.312-.774-3.081-1.031-1.543-.512-3.086-1.797-4.371-3.086-1.801-1.797-3.344-3.856-5.145-5.657-7.2-7.453-12.34-15.941-16.969-24.941-2.058-4.113-3.86-7.969-6.687-11.824-1.285-1.543-1.543-3.344-2.313-5.145-3.98-7.097-8.773-13.843-11.718-21.183l-17.25-3.243s-7.778-3.257-17.25-5.734c.23 7.883 1.183 15.863 3.792 23.473 0 0 .77.258 1.286 0 2.828-1.543 6.43-4.883 8.226-2.57 5.332 6.515 5.356 14.996 4.383 23.355.055.07.11.14.164.215a108.389 108.389 0 00-6.344-7.371c-5.066-5.176-10.558-9.88-16.476-13.93 10.867 14.82 22.457 33.785 32.16 46.492 2.629 3.445 4.476 6.672 5.734 9.676 1.89 4.508 2.438 8.508 2.203 11.953 3.204 1.031 6.235 2.246 9.547 3.664 1.543.516 3.086.258 4.63 1.027 17.335 9.477 36.128 13.555 54.882 19.137-.082-4.492.012-9.058.398-13.48 0-.512.774-1.285 1.028-1.285 2.574-1.543 6.172-1.801 8.23 0 .125.128.246.265.367.402l2.391-22.36a25.958 25.958 0 00-.906-10.07" fill="#dd3c36"/><path d="M65.308 114.78l-21.531-8S1.187 93.395.003 96.64c-.332.914 25.102 11.164 61.617 25.34.454-2.14 1.598-4.54 3.688-7.2m187.57 70.973l-5.586-2.008s-3.043 4.372-13.754-3.168c-4.464-3.14-6.32-4.89-6.972-5.867L91.67 124.577c.438 3.329.145 6.27-.535 8.793 45 17.286 98.824 37.641 142.328 54.02.8-.766 2.016-1.106 3.238-.55 1.036.472 2.11.902 3.262 1.066 2.426.304 4.317-.465 6.25-1.309.035.258.012.527-.078.793-.836 1.336-1.223 3.098-.84 4.457l1.438.539c-1.094-4.277 6.144-6.633 6.144-6.633" fill="#922d37"/><path d="M328.835 184.199c-20.07-11.829-23.394-21.473-23.394-21.473s-3.258 6.957-1.457 14.3c1.976 3.38 4.636 6.313 8.234 8.31 6.941 3.855 13.883 8.484 18 15.167-.773.516-1.8-1.285-1.8-.511 0 4.628-2.829 8.484-6.43 11.058 0-2.71-.13-5.617-.907-8.226-.703.199-1.695-.032-2.91-.813-5.937-3.8-21.55-21.547-37.781-17.035-14.18 3.945-27.902 8.664-36.152 7.234 7.336 2.211 25.535 6.957 37.074 3.657 4.656-1.333 7.719.44 9.734 3.492 1.418.453 2.766 1.144 3.945 2.175 4.368 3.602 4.368 11.313 10.797 12.086 0-2.058-.257-4.37.258-6.43 3.578 3.938 7.375 8.09 11.68 11.313h24.504s1.261-2.605 2.191-6.781c0 0 4.488-15.695-15.586-27.523" fill="#fdd83b"/></g></svg>